<svg version="1.1" id="Layer_1" xmlns="http://www.w3.org/2000/svg" xmlns:xlink="http://www.w3.org/1999/xlink" x="0px" y="0px"
	 width="100%" viewBox="0 0 580 462" enable-background="new 0 0 580 462" xml:space="preserve">
<path fill="#000000" opacity="1.000000" stroke="none" 
	d="
M251.000000,463.000000 
	C167.704315,463.000000 84.408630,463.000000 1.056475,463.000000 
	C1.056475,309.107239 1.056475,155.214462 1.056475,1.000000 
	C85.021156,1.000000 169.042725,1.000000 253.469437,1.379296 
	C252.210022,2.507093 250.613235,3.572374 248.868408,3.945643 
	C243.278381,5.141523 237.633560,6.081193 231.675720,7.224141 
	C230.209930,7.588901 229.078293,7.849261 227.745132,8.214607 
	C227.297501,8.505192 227.094040,8.729508 226.529541,9.004253 
	C212.849228,11.324496 200.741974,16.756533 188.568420,23.013611 
	C179.228897,27.857277 170.025482,32.279129 161.324020,37.532368 
	C155.478317,41.061516 150.343246,45.767727 144.562561,50.030251 
	C129.222748,61.687374 115.095184,74.203896 102.680656,89.040787 
	C100.903137,91.805275 99.412727,94.380119 97.958466,96.964981 
	C97.994606,96.975006 97.940971,96.922539 97.599670,96.964531 
	C90.568893,106.501434 83.225464,115.613457 77.377724,125.601181 
	C71.764854,135.187759 67.702393,145.682098 62.637566,155.992737 
	C60.509789,162.789825 58.703056,169.371704 56.657452,176.241455 
	C49.685715,197.622314 50.824867,219.362152 51.083046,241.496979 
	C51.351757,249.546341 51.408531,257.150909 52.011028,264.712006 
	C53.260612,280.393738 57.527836,295.399719 62.966293,310.381348 
	C63.209618,310.776459 63.314537,310.929718 63.513680,311.404144 
	C66.426544,318.407806 68.575706,325.481476 72.203644,331.691162 
	C79.686203,344.498657 87.609451,357.085815 96.038422,369.289062 
	C100.913139,376.346527 106.712204,382.900970 112.841621,388.922058 
	C120.480080,396.425476 128.887634,403.145996 137.055267,410.386047 
	C137.313965,410.793579 137.529984,410.952362 137.924728,411.364014 
	C140.680679,413.477814 143.307373,415.271423 146.107147,417.353333 
	C152.301315,422.634399 158.078857,428.014465 166.021301,430.345459 
	C166.679138,431.122742 167.289948,431.581421 168.134247,432.296387 
	C180.961212,438.260895 193.244049,444.848358 206.233032,449.436920 
	C219.999542,454.300110 234.443192,457.241364 248.567368,461.108673 
	C249.482285,461.359192 250.193848,462.352295 251.000000,463.000000 
z"/>
<path fill="#000000" opacity="1.000000" stroke="none" 
	d="
M329.000000,1.000001 
	C412.962067,1.000000 496.924103,1.000000 580.943115,1.000000 
	C580.943115,154.892471 580.943115,308.784973 580.943115,463.000000 
	C497.645508,463.000000 414.290619,463.000000 330.564880,462.628540 
	C330.879791,461.866974 331.521118,461.288025 332.257812,461.114899 
	C344.314362,458.281769 356.396698,455.556488 368.432800,452.640259 
	C370.079437,452.241302 371.509521,450.948608 373.359497,450.003052 
	C374.466431,449.572906 375.253784,449.209351 376.432343,448.880371 
	C385.468445,445.267334 394.115295,441.624329 402.746246,437.944061 
	C402.948456,437.857849 402.972076,437.352905 403.049652,437.029755 
	C403.020294,437.016235 403.029999,437.080139 403.391357,437.005066 
	C407.223907,434.968323 410.695129,433.006653 414.413513,430.913269 
	C415.132843,430.481445 415.604950,430.181396 416.289001,429.786743 
	C416.752136,429.502319 416.960968,429.273773 417.354919,428.980225 
	C417.582428,428.954010 418.031769,428.865326 418.400574,428.887390 
	C420.157684,428.438965 421.767700,428.273346 422.899689,427.450348 
	C433.024323,420.088531 443.482056,413.101471 452.995270,405.009003 
	C460.336853,398.763824 466.462250,391.088959 473.465637,383.990356 
	C476.550598,380.961914 479.298279,377.992828 482.321350,374.836548 
	C484.090454,372.446320 485.584137,370.243317 487.324402,367.895477 
	C488.090363,367.197906 488.609711,366.645203 489.370239,365.852905 
	C490.434418,363.756042 491.257416,361.898865 492.049133,360.029266 
	C492.017914,360.016876 492.043335,360.079071 492.365417,359.985352 
	C493.413574,358.602509 494.139679,357.313354 494.918884,355.804321 
	C494.972015,355.584381 495.046204,355.138000 495.320038,354.981323 
	C499.438171,348.239960 503.282471,341.655243 507.356079,334.871826 
	C508.099091,333.801239 508.612793,332.929352 509.363159,331.813721 
	C510.114319,330.063690 510.628845,328.557434 511.369293,327.018066 
	C511.595245,326.984955 512.040649,326.883820 512.253296,326.825623 
	C512.736572,326.597321 512.882874,326.352814 513.082153,325.692505 
	C513.541931,323.592957 513.824402,321.834839 514.460205,319.965088 
	C516.871582,314.397766 518.781250,308.880463 521.016968,303.498566 
	C526.578003,290.111389 529.835754,276.064758 530.788025,261.756531 
	C531.733948,247.545059 530.927124,233.216934 530.928467,218.478546 
	C530.658325,211.761215 530.446899,205.498566 530.019226,199.250732 
	C529.007202,184.464279 524.592834,170.432190 519.824463,156.567535 
	C517.607117,150.120392 514.005798,144.149246 510.975189,137.597717 
	C506.313873,129.464035 501.709229,121.694962 496.941162,113.611717 
	C494.897156,110.041069 493.295532,106.579239 491.079895,103.569405 
	C485.927063,96.569473 480.478210,89.787453 474.952759,82.645950 
	C470.463440,77.986580 466.438446,73.290901 461.823395,69.272949 
	C451.587219,60.361145 441.233002,51.562344 430.556763,43.189503 
	C426.225250,39.792500 420.929504,37.625034 415.891052,34.611450 
	C410.917969,31.431704 406.256592,28.290762 401.311035,25.690386 
	C384.128815,16.655966 365.670959,11.083297 346.649841,5.943023 
	C344.865570,5.489812 343.409271,5.311987 342.017761,4.909869 
	C337.665344,3.652086 333.337433,2.309640 329.000000,1.000001 
z"/>
<path fill="#173625" opacity="1.000000" stroke="none" 
	d="
M328.531342,1.000001 
	C333.337433,2.309640 337.665344,3.652086 342.017761,4.909869 
	C343.409271,5.311987 344.865570,5.489812 346.638123,6.313751 
	C346.140656,9.244385 345.297363,11.631527 344.682526,13.372006 
	C347.357330,15.274544 350.122253,16.423431 351.654297,18.487442 
	C355.895844,24.201628 355.378632,30.670868 353.273407,37.076778 
	C350.963898,44.104332 346.109222,50.749050 350.416473,58.691601 
	C350.799103,59.397194 350.181854,60.593224 350.200134,61.558228 
	C350.248108,64.089020 350.400696,66.617653 350.492920,69.147827 
	C350.584473,71.658539 350.712036,74.170021 350.714172,76.681267 
	C350.716003,78.815269 350.108704,81.057297 350.585052,83.057632 
	C351.262665,85.903122 354.275452,89.205688 353.482483,91.191925 
	C351.380524,96.457039 354.281433,100.523926 354.921936,105.119553 
	C355.335876,108.089531 354.740417,111.195686 354.648743,114.242363 
	C354.595001,116.029449 354.497162,117.833649 354.669189,119.605888 
	C355.416138,127.301521 359.694244,134.935867 354.535309,142.800446 
	C345.456451,142.915176 336.809967,143.383102 328.227783,142.838013 
	C319.670135,142.294449 312.184143,143.407730 306.598022,150.911072 
	C304.674164,150.379684 303.117188,149.718430 301.500305,149.499527 
	C296.551270,148.829514 294.981750,146.993286 295.061432,142.040298 
	C295.092346,140.119629 294.929077,138.111038 294.382782,136.283417 
	C293.220520,132.395004 290.922089,128.665939 290.604706,124.748749 
	C290.162201,119.288033 291.235046,113.718987 291.408569,108.188431 
	C291.510895,104.926613 291.149200,101.648376 290.954803,98.379982 
	C290.867493,96.912125 290.391327,95.411102 290.584747,93.992363 
	C291.538330,86.997635 292.678223,80.028503 293.696503,73.042198 
	C293.861664,71.909096 294.247528,70.283722 293.679504,69.652832 
	C289.835175,65.382980 291.831238,60.426907 292.156677,55.892395 
	C292.620880,49.425304 294.168701,43.041725 294.982513,36.588276 
	C295.116394,35.526527 294.150635,33.710049 293.198151,33.235317 
	C289.326569,31.305632 288.029694,27.869427 288.177185,24.159409 
	C288.484589,16.427670 289.358734,8.718464 290.000000,1.000000 
	C302.687561,1.000000 315.375122,1.000000 328.531342,1.000001 
z"/>
<path fill="#1B3227" opacity="1.000000" stroke="none" 
	d="
M289.531342,1.000000 
	C289.358734,8.718464 288.484589,16.427670 288.177185,24.159409 
	C288.029694,27.869427 289.326569,31.305632 293.198151,33.235317 
	C294.150635,33.710049 295.116394,35.526527 294.982513,36.588276 
	C294.168701,43.041725 292.620880,49.425304 292.156677,55.892395 
	C291.831238,60.426907 289.835175,65.382980 293.679504,69.652832 
	C294.247528,70.283722 293.861664,71.909096 293.696503,73.042198 
	C292.678223,80.028503 291.538330,86.997635 290.584747,93.992363 
	C290.391327,95.411102 290.867493,96.912125 290.954803,98.379982 
	C291.149200,101.648376 291.510895,104.926613 291.408569,108.188431 
	C291.235046,113.718987 290.162201,119.288033 290.604706,124.748749 
	C290.922089,128.665939 293.220520,132.395004 294.382782,136.283417 
	C294.929077,138.111038 295.092346,140.119629 295.061432,142.040298 
	C294.981750,146.993286 296.551270,148.829514 301.500305,149.499527 
	C303.117188,149.718430 304.674164,150.379684 306.485107,151.225159 
	C301.481720,156.910599 296.251801,162.209503 290.939789,167.174789 
	C290.246735,166.229401 289.635773,165.617615 288.778778,164.833038 
	C287.353546,165.107025 286.174347,165.553818 284.708618,166.184296 
	C279.409149,169.085770 280.187195,173.519882 280.823303,178.247742 
	C278.792175,180.051346 276.924042,181.567459 274.861938,182.810410 
	C272.752960,180.367264 270.837982,178.197281 269.174316,175.931091 
	C268.590973,174.912766 267.756256,173.990631 266.905884,173.085205 
	C266.890167,173.101929 266.845764,173.116608 266.882629,172.733215 
	C267.534027,169.772186 268.367279,167.221512 268.689697,164.607819 
	C268.922607,162.719345 268.370148,160.747437 268.364471,158.812164 
	C268.359192,157.017822 269.363464,154.776657 268.611176,153.513870 
	C266.575989,150.097626 263.727325,147.102890 269.337524,144.423004 
	C269.587036,144.303787 269.635254,143.487778 269.569763,143.025772 
	C268.649567,136.535370 266.199982,129.811798 267.185944,123.633827 
	C268.085571,117.996452 268.036346,112.482491 268.634155,106.945061 
	C268.892609,104.550858 269.660828,102.989334 267.697083,100.848328 
	C264.485046,97.346298 264.625275,89.160370 267.749146,85.829666 
	C270.196320,83.220497 270.099487,80.734001 268.908447,77.619682 
	C268.075409,75.441460 267.711456,72.904907 267.847992,70.569901 
	C268.193115,64.667664 270.804382,58.468292 264.641022,53.764957 
	C264.147217,53.388119 264.274689,51.864777 264.484772,50.960491 
	C265.103668,48.296753 266.807709,45.556995 266.475922,43.061165 
	C265.418365,35.105961 263.707489,27.232178 262.101196,19.357086 
	C260.848389,13.214753 259.375244,7.117358 258.000000,1.000000 
	C268.354218,1.000000 278.708466,1.000000 289.531342,1.000000 
M269.694733,92.087227 
	C269.892639,92.052269 270.090515,92.017319 270.288422,91.982368 
	C270.093567,91.935051 269.898743,91.887733 269.694733,92.087227 
z"/>
<path fill="#1D3028" opacity="1.000000" stroke="none" 
	d="
M257.600006,1.000000 
	C259.375244,7.117358 260.848389,13.214753 262.101196,19.357086 
	C263.707489,27.232178 265.418365,35.105961 266.475922,43.061165 
	C266.807709,45.556995 265.103668,48.296753 264.484772,50.960491 
	C264.274689,51.864777 264.147217,53.388119 264.641022,53.764957 
	C270.804382,58.468292 268.193115,64.667664 267.847992,70.569901 
	C267.711456,72.904907 268.075409,75.441460 268.908447,77.619682 
	C270.099487,80.734001 270.196320,83.220497 267.749146,85.829666 
	C264.625275,89.160370 264.485046,97.346298 267.697083,100.848328 
	C269.660828,102.989334 268.892609,104.550858 268.634155,106.945061 
	C268.036346,112.482491 268.085571,117.996452 267.185944,123.633827 
	C266.199982,129.811798 268.649567,136.535370 269.569763,143.025772 
	C269.635254,143.487778 269.587036,144.303787 269.337524,144.423004 
	C263.727325,147.102890 266.575989,150.097626 268.611176,153.513870 
	C269.363464,154.776657 268.359192,157.017822 268.364471,158.812164 
	C268.370148,160.747437 268.922607,162.719345 268.689697,164.607819 
	C268.367279,167.221512 267.534027,169.772186 266.564484,172.635040 
	C257.156433,164.610641 248.103455,156.301025 239.330994,147.778229 
	C240.629013,144.318848 242.161163,141.133469 242.553558,137.813400 
	C243.301605,131.484131 243.388702,125.077377 243.769928,118.703972 
	C244.162964,112.132927 245.934418,105.291939 244.684998,99.053261 
	C242.524445,88.264900 244.796494,77.662735 244.070374,67.004333 
	C243.678848,61.257603 244.733612,55.352551 243.871613,49.712135 
	C242.678101,41.902531 240.268204,34.280983 238.445374,26.563272 
	C238.143906,25.286886 237.765854,23.798786 238.135956,22.635233 
	C239.419678,18.599352 237.646713,15.597107 235.407700,12.572659 
	C234.137482,10.856885 233.133667,8.943905 232.009872,7.119742 
	C237.633560,6.081193 243.278381,5.141523 248.868408,3.945643 
	C250.613235,3.572374 252.210022,2.507093 253.937286,1.379296 
	C255.066666,1.000000 256.133331,1.000000 257.600006,1.000000 
z"/>
<path fill="#163825" opacity="1.000000" stroke="none" 
	d="
M313.000000,463.000000 
	C305.979034,463.000000 298.958099,463.000000 291.477234,462.620239 
	C291.609009,460.743744 291.794373,458.804291 292.861115,457.825195 
	C298.128998,452.990265 296.853180,446.335083 296.826782,440.682648 
	C296.803284,435.643860 293.627563,430.619812 291.948914,425.283752 
	C294.640564,421.970123 297.226288,418.962006 300.164978,416.004578 
	C302.317017,417.487183 304.072876,418.977661 305.923737,420.339111 
	C310.179260,423.469330 314.167786,427.162781 318.830933,429.495728 
	C327.784790,433.975250 338.093506,429.947723 341.242859,421.246094 
	C342.052368,419.009399 342.136047,416.509949 342.707275,413.252563 
	C351.408112,420.162567 359.915344,426.317902 371.007874,420.489014 
	C371.669159,430.271240 372.331512,439.630463 372.610779,449.022095 
	C353.981384,455.126007 335.412109,459.668365 316.163177,461.116211 
	C315.067749,461.198639 314.052521,462.347473 313.000000,463.000000 
z"/>
<path fill="#1C3128" opacity="1.000000" stroke="none" 
	d="
M291.842926,425.589264 
	C293.627563,430.619812 296.803284,435.643860 296.826782,440.682648 
	C296.853180,446.335083 298.128998,452.990265 292.861115,457.825195 
	C291.794373,458.804291 291.609009,460.743744 291.008667,462.620239 
	C282.645782,463.000000 274.291534,463.000000 265.297485,462.667725 
	C254.770523,460.542938 244.883423,458.750458 234.922501,456.609314 
	C234.742325,453.932770 231.529175,450.902405 235.567368,449.474091 
	C241.346924,447.429840 242.012985,443.085541 242.061188,437.988190 
	C242.080734,435.920349 242.395660,433.683289 243.242188,431.826965 
	C245.962708,425.861115 249.479126,420.215424 251.730698,414.093903 
	C253.174255,410.169220 254.574539,408.650757 258.819427,409.679199 
	C262.296326,410.521576 265.985535,410.487640 269.858459,410.992004 
	C276.032715,416.723755 281.929138,422.305695 288.006866,428.059265 
	C289.399597,427.162476 290.621277,426.375885 291.842926,425.589264 
z"/>
<path fill="#2C3D39" opacity="1.000000" stroke="none" 
	d="
M234.996323,456.957947 
	C244.883423,458.750458 254.770523,460.542938 264.828796,462.667725 
	C260.643097,463.000000 256.286194,463.000000 251.464645,463.000000 
	C250.193848,462.352295 249.482285,461.359192 248.567368,461.108673 
	C234.443192,457.241364 219.999542,454.300110 206.233032,449.436920 
	C193.244049,444.848358 180.961212,438.260895 168.424438,432.276917 
	C168.674454,431.991241 168.867783,431.981415 169.443192,431.983795 
	C171.546906,432.501129 173.357986,432.811035 174.972137,433.550690 
	C178.698730,435.258331 182.329773,437.174500 186.254944,439.241150 
	C202.672302,445.303467 218.834305,451.130707 234.996323,456.957947 
z"/>
<path fill="#1C442D" opacity="1.000000" stroke="none" 
	d="
M313.467590,463.000000 
	C314.052521,462.347473 315.067749,461.198639 316.163177,461.116211 
	C335.412109,459.668365 353.981384,455.126007 372.621185,449.292206 
	C373.023071,449.709808 373.031464,449.889740 373.039886,450.069702 
	C371.509521,450.948608 370.079437,452.241302 368.432800,452.640259 
	C356.396698,455.556488 344.314362,458.281769 332.257812,461.114899 
	C331.521118,461.288025 330.879791,461.866974 330.097046,462.628540 
	C324.645081,463.000000 319.290131,463.000000 313.467590,463.000000 
z"/>
<path fill="#222C2B" opacity="1.000000" stroke="none" 
	d="
M231.675720,7.224141 
	C233.133667,8.943905 234.137482,10.856885 235.407700,12.572659 
	C237.646713,15.597107 239.419678,18.599352 238.135956,22.635233 
	C237.765854,23.798786 238.143906,25.286886 238.445374,26.563272 
	C240.268204,34.280983 242.678101,41.902531 243.871613,49.712135 
	C244.733612,55.352551 243.678848,61.257603 244.070374,67.004333 
	C244.796494,77.662735 242.524445,88.264900 244.684998,99.053261 
	C245.934418,105.291939 244.162964,112.132927 243.769928,118.703972 
	C243.388702,125.077377 243.301605,131.484131 242.553558,137.813400 
	C242.161163,141.133469 240.629013,144.318848 239.038879,147.597321 
	C236.335083,146.596771 234.225327,144.732697 232.069077,144.677277 
	C223.442535,144.455475 214.794724,145.031937 206.170105,144.782837 
	C203.593521,144.708405 200.602783,143.456390 198.613724,141.780334 
	C194.440948,138.264175 190.806992,134.108582 187.128754,129.906281 
	C188.046509,126.358078 189.080505,123.153732 189.468170,119.873001 
	C190.320938,112.655998 191.474365,105.389435 191.347900,98.163353 
	C191.190048,89.143906 189.812149,80.149254 189.101547,71.132828 
	C188.974899,69.525864 189.538406,67.865952 189.772064,66.228897 
	C190.517181,61.008236 191.777283,55.795387 191.863312,50.563480 
	C191.964081,44.435394 191.006104,38.292824 190.590210,32.150928 
	C190.503372,30.868532 191.075378,29.498526 190.816742,28.280832 
	C190.427979,26.450569 189.574188,24.719074 188.918121,22.945587 
	C200.741974,16.756533 212.849228,11.324496 226.715729,8.876108 
	C227.543060,8.551672 227.756729,8.342794 227.946640,8.109622 
	C229.078293,7.849261 230.209930,7.588901 231.675720,7.224141 
z"/>
<path fill="#2D2A37" opacity="1.000000" stroke="none" 
	d="
M137.795471,411.043823 
	C137.529984,410.952362 137.313965,410.793579 136.994843,410.032776 
	C135.504654,407.858490 134.295654,406.090393 132.807709,404.601044 
	C125.576797,397.363342 118.271172,390.200348 110.985657,382.622467 
	C110.612640,380.799438 110.497665,379.234589 109.834862,377.953125 
	C107.244881,372.945679 104.388451,368.075623 101.816849,363.059265 
	C100.207573,359.920074 99.045784,356.750000 101.332756,353.173584 
	C102.281273,351.690308 102.623566,349.403320 102.336845,347.627991 
	C101.618851,343.182373 97.519569,339.053772 101.502213,334.203064 
	C101.879234,333.743835 101.191223,331.841614 100.474655,331.155823 
	C97.961395,328.750580 97.976273,326.455933 99.765297,323.608673 
	C100.456612,322.508392 100.408318,320.780243 100.297028,319.369720 
	C99.971886,315.248871 98.960693,311.126190 99.110512,307.036926 
	C99.338104,300.824921 100.434677,294.649902 100.931549,288.440704 
	C101.226707,284.752167 101.556740,280.954498 100.998260,277.340820 
	C100.432297,273.678619 98.687462,270.211243 97.692276,266.594299 
	C97.431290,265.645752 97.652130,263.991516 98.304062,263.456879 
	C102.880989,259.703461 103.942757,255.121017 102.296883,249.601532 
	C102.044502,248.755188 102.279045,247.461777 102.795784,246.736771 
	C106.234100,241.912659 104.495758,237.262070 102.546082,232.583115 
	C100.324310,227.251144 99.841583,221.932968 100.650734,216.052063 
	C101.416756,210.484680 100.284706,204.656067 99.986137,198.942413 
	C99.935768,197.978607 99.747467,197.000992 99.849281,196.054123 
	C100.170006,193.071182 100.598473,190.099823 101.273666,187.279114 
	C113.898766,198.452545 126.235428,209.470856 138.500732,220.903580 
	C137.362793,226.477905 137.621628,231.160294 143.016266,234.337326 
	C143.294144,237.113037 143.553940,239.550201 143.799469,242.301041 
	C143.536377,243.408905 143.287521,244.203110 142.723419,245.146332 
	C140.704102,247.388870 140.124039,250.014313 137.276382,251.729538 
	C135.547409,252.770950 134.505554,258.576202 135.767288,260.159180 
	C137.974213,262.927979 137.219498,264.452972 135.406815,265.901154 
	C132.252350,268.421295 129.898132,270.714233 133.192780,274.779480 
	C133.635895,275.326263 133.265305,276.639008 133.088852,277.562164 
	C132.457718,280.864014 131.647003,284.134216 131.100769,287.448761 
	C130.683334,289.981567 130.634155,292.572815 130.295349,295.121338 
	C129.644760,300.014923 128.074341,305.036255 133.154633,308.777557 
	C133.829742,309.274719 134.467407,311.140717 134.317230,311.248260 
	C130.350113,314.088898 133.322266,318.437103 131.996918,321.645477 
	C128.886337,329.175476 130.890228,336.981659 130.150940,344.619934 
	C129.764313,348.614471 129.853333,352.677307 130.030869,356.695923 
	C130.140411,359.175781 130.840714,361.627289 131.240479,364.097229 
	C131.763901,367.331146 133.234909,370.790222 132.569855,373.766205 
	C130.657043,382.325653 134.921692,389.566620 136.636246,397.319427 
	C137.666809,401.979401 139.512207,406.459198 140.592560,411.016602 
	C139.394272,411.023438 138.594879,411.033630 137.795471,411.043823 
z"/>
<path fill="#352F40" opacity="1.000000" stroke="none" 
	d="
M51.118225,241.032486 
	C50.824867,219.362152 49.685715,197.622314 56.910927,176.355927 
	C59.613232,169.787323 61.823196,163.392120 64.270462,156.749969 
	C65.513466,154.650528 66.600731,152.836975 67.507874,150.937408 
	C69.395287,146.985092 71.187302,142.987213 73.216972,139.339081 
	C73.410774,141.929886 73.208015,144.213226 73.472603,146.441055 
	C73.643074,147.876358 74.120384,149.662430 75.119881,150.539459 
	C78.109322,153.162552 81.423538,155.415512 84.475014,158.109375 
	C82.050995,161.046890 79.762909,163.688004 77.571548,166.217484 
	C80.005722,168.805466 81.979897,170.904404 83.583527,173.041992 
	C82.228798,173.840881 80.546616,174.469437 80.374298,175.382858 
	C79.296638,181.095169 74.667641,185.976624 76.781303,192.541733 
	C77.374184,194.383255 75.827652,196.951309 75.148567,199.150955 
	C74.715492,200.553696 73.583649,201.899841 73.605896,203.257599 
	C73.727570,210.684891 74.179024,218.106018 74.384087,225.532944 
	C74.625679,234.282501 75.314766,243.077805 74.689049,251.772614 
	C74.277679,257.488953 74.984558,262.521423 77.175911,267.700134 
	C77.897591,269.405609 77.214233,271.877594 76.711159,273.883148 
	C76.158760,276.085358 73.729904,279.100067 74.448158,280.119537 
	C77.880737,284.991669 74.935974,289.705780 74.985214,294.430420 
	C75.047188,300.376923 75.016914,306.324921 74.971054,312.271851 
	C74.953323,314.570526 74.359528,316.945709 74.762955,319.151642 
	C75.979919,325.806030 77.557640,332.394409 78.718948,338.809509 
	C75.044891,331.498444 71.767342,324.324646 68.179291,317.309723 
	C67.008781,315.021301 65.029068,313.146820 63.419460,311.083008 
	C63.314537,310.929718 63.209618,310.776459 63.188587,310.068665 
	C63.156487,307.437836 63.371006,305.276367 62.862110,303.301300 
	C61.375076,297.529938 58.953999,291.930939 58.066826,286.087097 
	C56.009586,272.535950 54.679569,258.875366 52.931271,245.274994 
	C52.742611,243.807404 51.742126,242.444138 51.118225,241.032486 
z"/>
<path fill="#272930" opacity="1.000000" stroke="none" 
	d="
M188.568405,23.013611 
	C189.574188,24.719074 190.427979,26.450569 190.816742,28.280832 
	C191.075378,29.498526 190.503372,30.868532 190.590210,32.150928 
	C191.006104,38.292824 191.964081,44.435394 191.863312,50.563480 
	C191.777283,55.795387 190.517181,61.008236 189.772064,66.228897 
	C189.538406,67.865952 188.974899,69.525864 189.101547,71.132828 
	C189.812149,80.149254 191.190048,89.143906 191.347900,98.163353 
	C191.474365,105.389435 190.320938,112.655998 189.468170,119.873001 
	C189.080505,123.153732 188.046509,126.358078 186.804504,129.781525 
	C184.651581,128.607803 182.932556,127.322891 181.359711,125.878777 
	C174.409439,119.497368 167.501236,113.070137 160.717102,106.352661 
	C161.667587,104.994713 162.405029,103.875572 163.301575,102.903137 
	C171.205551,94.330009 171.109390,94.461693 162.188477,86.940437 
	C159.615280,84.770950 157.631561,84.749321 154.965866,86.336380 
	C152.593155,85.649300 149.104065,85.814774 148.551880,84.621368 
	C146.799622,80.834267 145.876236,76.587349 145.141068,72.428268 
	C144.461060,68.581146 144.698639,64.980232 147.102005,61.224392 
	C150.674576,55.641373 149.495728,51.955036 144.890228,49.947311 
	C150.343246,45.767727 155.478317,41.061516 161.324020,37.532368 
	C170.025482,32.279129 179.228897,27.857277 188.568405,23.013611 
z"/>
<path fill="#2E2A38" opacity="1.000000" stroke="none" 
	d="
M144.562561,50.030251 
	C149.495728,51.955036 150.674576,55.641373 147.102005,61.224392 
	C144.698639,64.980232 144.461060,68.581146 145.141068,72.428268 
	C145.876236,76.587349 146.799622,80.834267 148.551880,84.621368 
	C149.104065,85.814774 152.593155,85.649300 154.786575,86.592545 
	C144.240860,97.727814 133.646652,108.376289 122.771057,118.847672 
	C120.134483,116.793404 118.583252,114.218842 114.733727,117.743279 
	C112.559212,119.734161 107.707130,118.800514 104.079445,119.182266 
	C103.759003,116.660019 103.578964,115.242897 103.398232,113.820328 
	C95.361565,114.986954 94.274261,113.795074 95.605980,105.807159 
	C95.698654,105.251259 95.197144,104.596298 95.062119,103.649216 
	C96.081848,101.181534 97.011406,99.052032 97.940971,96.922539 
	C97.940971,96.922539 97.994606,96.975006 98.299194,96.883087 
	C100.058449,94.144501 101.513107,91.497818 102.967766,88.851135 
	C115.095184,74.203896 129.222748,61.687374 144.562561,50.030251 
z"/>
<path fill="#373A44" opacity="1.000000" stroke="none" 
	d="
M63.513680,311.404144 
	C65.029068,313.146820 67.008781,315.021301 68.179291,317.309723 
	C71.767342,324.324646 75.044891,331.498444 78.804764,339.147919 
	C81.775932,344.089508 83.993973,348.791412 87.072014,352.839325 
	C94.838905,363.053467 102.993050,372.973175 110.992012,383.010864 
	C118.271172,390.200348 125.576797,397.363342 132.807709,404.601044 
	C134.295654,406.090393 135.504654,407.858490 136.902664,409.851318 
	C128.887634,403.145996 120.480080,396.425476 112.841621,388.922058 
	C106.712204,382.900970 100.913139,376.346527 96.038422,369.289062 
	C87.609451,357.085815 79.686203,344.498657 72.203644,331.691162 
	C68.575706,325.481476 66.426544,318.407806 63.513680,311.404144 
z"/>
<path fill="#373A44" opacity="1.000000" stroke="none" 
	d="
M51.083046,241.496979 
	C51.742126,242.444138 52.742611,243.807404 52.931271,245.274994 
	C54.679569,258.875366 56.009586,272.535950 58.066826,286.087097 
	C58.953999,291.930939 61.375076,297.529938 62.862110,303.301300 
	C63.371006,305.276367 63.156487,307.437836 63.050186,309.826843 
	C57.527836,295.399719 53.260612,280.393738 52.011028,264.712006 
	C51.408531,257.150909 51.351757,249.546341 51.083046,241.496979 
z"/>
<path fill="#373A44" opacity="1.000000" stroke="none" 
	d="
M97.599670,96.964531 
	C97.011406,99.052032 96.081848,101.181534 94.782333,103.833130 
	C85.330399,114.701866 78.805809,126.627365 73.018524,139.008057 
	C71.187302,142.987213 69.395287,146.985092 67.507874,150.937408 
	C66.600731,152.836975 65.513466,154.650528 64.058395,156.577576 
	C63.392216,156.360596 63.175415,156.069046 62.958611,155.777512 
	C67.702393,145.682098 71.764854,135.187759 77.377724,125.601181 
	C83.225464,115.613457 90.568893,106.501434 97.599670,96.964531 
z"/>
<path fill="#516662" opacity="1.000000" stroke="none" 
	d="
M62.637566,155.992737 
	C63.175415,156.069046 63.392216,156.360596 63.821087,156.824524 
	C61.823196,163.392120 59.613232,169.787323 57.149796,176.068054 
	C58.703056,169.371704 60.509789,162.789825 62.637566,155.992737 
z"/>
<path fill="#373A44" opacity="1.000000" stroke="none" 
	d="
M165.974274,430.026825 
	C158.078857,428.014465 152.301315,422.634399 146.124298,417.336426 
	C145.968353,417.031281 146.001907,416.998016 146.364014,417.020996 
	C150.484528,419.356018 154.242920,421.668060 158.305267,424.137451 
	C161.073380,426.195923 163.537552,428.097076 165.995758,430.004333 
	C165.989822,430.010498 165.974274,430.026825 165.974274,430.026825 
z"/>
<path fill="#373A44" opacity="1.000000" stroke="none" 
	d="
M137.924728,411.364014 
	C138.594879,411.033630 139.394272,411.023438 140.785675,411.284760 
	C142.919083,413.370178 144.460495,415.184113 146.001907,416.998016 
	C146.001907,416.998016 145.968353,417.031281 145.951202,417.048157 
	C143.307373,415.271423 140.680679,413.477814 137.924728,411.364014 
z"/>
<path fill="#373A44" opacity="1.000000" stroke="none" 
	d="
M102.680656,89.040787 
	C101.513107,91.497818 100.058449,94.144501 98.263054,96.873070 
	C99.412727,94.380119 100.903137,91.805275 102.680656,89.040787 
z"/>
<path fill="#373A44" opacity="1.000000" stroke="none" 
	d="
M169.061111,431.971588 
	C168.867783,431.981415 168.674454,431.991241 168.190918,432.020569 
	C167.289948,431.581421 166.679138,431.122742 166.021301,430.345459 
	C165.974274,430.026825 165.989822,430.010498 166.303757,430.066986 
	C167.432159,430.739502 168.246628,431.355560 169.061111,431.971588 
z"/>
<path fill="#1D3028" opacity="1.000000" stroke="none" 
	d="
M227.745132,8.214607 
	C227.756729,8.342794 227.543060,8.551672 227.119446,8.864398 
	C227.094040,8.729508 227.297501,8.505192 227.745132,8.214607 
z"/>
<path fill="#123D23" opacity="1.000000" stroke="none" 
	d="
M354.995850,142.709625 
	C359.694244,134.935867 355.416138,127.301521 354.669189,119.605888 
	C354.497162,117.833649 354.595001,116.029449 354.648743,114.242363 
	C354.740417,111.195686 355.335876,108.089531 354.921936,105.119553 
	C354.281433,100.523926 351.380524,96.457039 353.482483,91.191925 
	C354.275452,89.205688 351.262665,85.903122 350.585052,83.057632 
	C350.108704,81.057297 350.716003,78.815269 350.714172,76.681267 
	C350.712036,74.170021 350.584473,71.658539 350.492920,69.147827 
	C350.400696,66.617653 350.248108,64.089020 350.200134,61.558228 
	C350.181854,60.593224 350.799103,59.397194 350.416473,58.691601 
	C346.109222,50.749050 350.963898,44.104332 353.273407,37.076778 
	C355.378632,30.670868 355.895844,24.201628 351.654297,18.487442 
	C350.122253,16.423431 347.357330,15.274544 344.682526,13.372006 
	C345.297363,11.631527 346.140656,9.244385 346.995697,6.486514 
	C365.670959,11.083297 384.128815,16.655966 401.311035,25.690386 
	C406.256592,28.290762 410.917969,31.431704 415.600311,34.809135 
	C415.013947,35.413071 414.526947,35.666618 414.061310,35.632179 
	C407.180481,35.123371 406.039246,36.640438 407.974182,43.098488 
	C408.820984,45.924721 408.665527,49.067719 409.622223,51.840149 
	C410.685333,54.920982 412.399567,57.798454 414.011475,60.662502 
	C415.573944,63.438663 417.464996,66.029716 419.031708,68.803741 
	C420.791016,71.918701 421.918945,75.494057 424.120911,78.224442 
	C426.114838,80.696854 427.613892,82.386711 425.322876,85.500687 
	C424.706909,86.337921 425.707458,88.364456 425.800293,90.144257 
	C409.460907,106.707352 393.331635,123.016029 377.048676,139.169830 
	C375.312286,140.892441 372.757599,142.557602 370.444305,142.774368 
	C365.341644,143.252472 360.150757,142.788940 354.995850,142.709625 
z"/>
<path fill="#0F4422" opacity="1.000000" stroke="none" 
	d="
M373.359497,450.003052 
	C373.031464,449.889740 373.023071,449.709808 373.004303,449.259766 
	C372.331512,439.630463 371.669159,430.271240 371.271423,420.278839 
	C375.273193,414.752655 379.010376,409.859711 382.801025,404.896729 
	C395.096039,412.321289 402.785492,411.395721 411.395691,400.951599 
	C414.933350,397.729401 417.666504,394.378510 417.039246,389.575806 
	C416.337494,384.203064 419.282318,382.315582 423.905975,382.272491 
	C428.456085,382.230042 432.087738,380.441833 434.507446,376.806213 
	C440.492035,367.814331 442.329193,357.472961 433.528503,348.792603 
	C430.818390,346.119476 428.965302,342.577454 426.830933,339.127319 
	C429.402618,334.807434 435.252258,332.341827 433.139374,325.987396 
	C435.305176,324.198395 438.751923,322.340332 438.612366,320.809113 
	C437.962006,313.673584 443.688263,306.778473 439.214050,299.509369 
	C438.440918,298.253265 439.350311,295.970062 439.459167,294.159882 
	C439.547668,292.687927 439.965515,291.114838 439.597382,289.760498 
	C438.719147,286.529297 439.627197,284.405518 442.463867,282.648193 
	C443.417694,282.057312 444.507233,279.708496 444.178833,279.325439 
	C440.145905,274.620789 442.249756,269.167999 442.139618,263.708984 
	C442.848999,261.916931 443.425690,260.439209 444.320740,258.813599 
	C444.425873,253.454193 444.212646,248.242630 443.927002,242.578613 
	C443.902008,239.072510 443.949402,236.018890 444.196991,232.668640 
	C444.602631,230.943237 444.808105,229.514481 445.190735,227.799500 
	C449.305298,223.694946 453.242737,219.876587 457.574371,216.051819 
	C463.031555,215.747437 464.434631,218.739731 463.899261,223.027267 
	C463.553070,225.799759 462.125671,228.503174 462.120239,231.239410 
	C462.106262,238.254791 462.757050,245.269501 462.842224,252.288116 
	C462.873779,254.888855 461.586761,257.526550 461.729950,260.101318 
	C462.288422,270.142670 463.182922,280.165283 463.934021,290.196228 
	C463.970581,290.684967 463.773468,291.188080 463.784546,291.682281 
	C463.926697,298.037506 464.081299,304.392517 464.244080,310.747253 
	C464.436676,318.266174 465.084381,325.806976 464.711090,333.297241 
	C464.355072,340.441010 462.689484,347.509583 462.049927,354.651520 
	C461.141296,364.797607 460.485016,374.826050 456.121552,384.408569 
	C453.490662,390.186279 452.649994,396.779175 450.823456,403.287231 
	C442.744843,409.555237 434.822144,415.508575 426.963196,421.544891 
	C423.911896,423.888519 421.004639,426.419617 418.031769,428.865326 
	C418.031769,428.865326 417.582428,428.954010 417.162201,429.106201 
	C416.494019,429.437927 416.272369,429.645569 416.077057,429.881348 
	C415.604950,430.181396 415.132843,430.481445 414.024841,430.927002 
	C409.936005,433.075012 406.483002,435.077606 403.030029,437.080139 
	C403.029999,437.080139 403.020294,437.016235 402.651245,437.026978 
	C393.772736,440.541687 385.258972,444.035370 376.769012,447.585876 
	C376.412994,447.734741 376.278687,448.413727 376.041138,448.845764 
	C375.253784,449.209351 374.466431,449.572906 373.359497,450.003052 
z"/>
<path fill="#0F4624" opacity="1.000000" stroke="none" 
	d="
M425.965942,89.845055 
	C425.707458,88.364456 424.706909,86.337921 425.322876,85.500687 
	C427.613892,82.386711 426.114838,80.696854 424.120911,78.224442 
	C421.918945,75.494057 420.791016,71.918701 419.031708,68.803741 
	C417.464996,66.029716 415.573944,63.438663 414.011475,60.662502 
	C412.399567,57.798454 410.685333,54.920982 409.622223,51.840149 
	C408.665527,49.067719 408.820984,45.924721 407.974182,43.098488 
	C406.039246,36.640438 407.180481,35.123371 414.061310,35.632179 
	C414.526947,35.666618 415.013947,35.413071 415.781738,35.095779 
	C420.929504,37.625034 426.225250,39.792500 430.556763,43.189503 
	C441.233002,51.562344 451.587219,60.361145 461.823395,69.272949 
	C466.438446,73.290901 470.463440,77.986580 474.573425,82.643906 
	C469.190369,82.480537 468.121765,83.680473 469.276703,89.745956 
	C471.192383,99.806412 473.684692,109.766197 475.303650,119.869415 
	C475.927338,123.761780 474.827911,127.930267 474.205750,131.796097 
	C468.323303,126.186813 462.723236,120.780266 457.180115,115.315933 
	C448.697662,106.954048 440.234833,98.571983 431.809357,90.152771 
	C429.873047,88.217865 428.032837,87.711136 425.965942,89.845055 
z"/>
<path fill="#0D5027" opacity="1.000000" stroke="none" 
	d="
M482.045959,375.023773 
	C479.298279,377.992828 476.550598,380.961914 473.181519,383.976501 
	C472.370880,384.014465 472.181671,384.006927 472.023376,383.625549 
	C472.142517,382.760742 472.152802,382.239410 472.330353,381.783234 
	C477.218445,369.224335 483.965088,357.386780 485.869232,343.683716 
	C486.834290,336.738983 489.240387,330.001770 490.793732,323.125275 
	C491.100311,321.768250 490.409790,320.208344 490.309723,318.733093 
	C489.971954,313.755157 489.302795,308.756775 489.511292,303.797821 
	C489.688080,299.593689 491.533661,295.431152 491.519562,291.253998 
	C491.496490,284.412262 490.578766,277.572266 490.004486,270.734436 
	C489.851654,268.915192 489.367889,267.103912 489.389191,265.293121 
	C489.540375,252.442093 489.803925,239.592438 489.973724,226.741577 
	C489.997772,224.924072 489.623077,223.104095 489.586792,221.282211 
	C489.551331,219.502213 489.713928,217.718323 489.787292,215.936066 
	C489.885895,213.541855 490.094757,211.145279 490.047150,208.753891 
	C490.001678,206.473419 489.406067,204.180634 489.547546,201.924316 
	C489.897186,196.347885 487.598480,191.119553 484.039124,189.506866 
	C487.528015,186.006363 490.889771,182.811493 494.583496,179.890137 
	C495.609955,182.634262 496.454651,185.074020 496.969421,187.581512 
	C498.276276,193.947357 498.609711,200.667435 500.942657,206.614166 
	C502.508362,210.605179 503.574890,213.161591 499.668518,215.440765 
	C500.181152,217.445374 501.247559,219.255051 500.934052,220.781250 
	C499.192810,229.257278 499.609833,237.512466 501.989624,245.832458 
	C502.827454,248.761581 503.301361,252.281479 502.462097,255.089508 
	C501.203857,259.299469 498.918030,263.019470 503.353424,266.747681 
	C503.897156,267.204712 503.206573,269.177216 503.024109,270.438171 
	C502.838409,271.721588 502.484436,272.984924 502.360077,274.272156 
	C501.952118,278.494293 502.064911,282.826721 501.123749,286.920471 
	C500.188293,290.989227 498.651550,294.748383 501.294159,298.758667 
	C501.937531,299.735016 501.849670,301.343292 501.752228,302.634918 
	C500.545746,318.626740 496.851379,333.947266 489.402069,348.263916 
	C487.954498,351.045929 486.853210,354.006622 485.553558,356.867371 
	C483.303101,361.820892 480.968536,366.737732 478.838257,371.741882 
	C478.626129,372.240143 479.581543,373.235413 480.251984,374.126831 
	C481.021240,374.510376 481.533600,374.767090 482.045959,375.023773 
z"/>
<path fill="#0A5929" opacity="1.000000" stroke="none" 
	d="
M514.106873,320.076721 
	C513.824402,321.834839 513.541931,323.592957 512.923950,325.819153 
	C512.385315,326.467194 512.202698,326.666077 512.040649,326.883820 
	C512.040649,326.883820 511.595245,326.984955 511.012238,327.005859 
	C509.953644,327.018219 509.478027,327.009735 508.849823,326.687317 
	C509.617035,317.647705 510.130127,308.855652 511.540771,300.210052 
	C514.545959,281.791351 515.767761,263.233185 514.372681,244.712662 
	C513.326111,230.819839 515.933716,216.737122 512.094360,203.017212 
	C511.841705,202.114456 512.098022,201.022369 512.285217,200.050644 
	C514.523010,188.434952 511.289093,177.767853 506.822296,167.012421 
	C506.415466,165.529175 506.079102,164.165924 505.250031,163.247330 
	C502.972900,160.724304 500.488922,158.387878 498.385162,155.766251 
	C499.454651,153.474869 500.749420,151.433578 500.906616,149.308136 
	C501.607422,139.835190 498.905518,130.963455 495.980927,122.066574 
	C495.212433,119.728767 496.669525,116.659348 497.104553,113.925888 
	C501.709229,121.694962 506.313873,129.464035 510.818115,137.869019 
	C512.480835,143.998840 514.243958,149.492752 516.005615,155.456177 
	C516.661804,165.653137 517.364502,175.377808 517.965393,185.108795 
	C518.688782,196.823288 519.657654,208.535767 519.917358,220.262482 
	C520.255127,235.516846 520.347961,250.795349 519.865601,266.041931 
	C519.588623,274.795044 518.020691,283.512573 516.931824,292.233368 
	C515.826660,301.084015 514.584900,309.917542 513.456299,318.765381 
	C513.404907,319.168274 513.878052,319.638092 514.106873,320.076721 
z"/>
<path fill="#095F2B" opacity="1.000000" stroke="none" 
	d="
M514.460205,319.965088 
	C513.878052,319.638092 513.404907,319.168274 513.456299,318.765381 
	C514.584900,309.917542 515.826660,301.084015 516.931824,292.233368 
	C518.020691,283.512573 519.588623,274.795044 519.865601,266.041931 
	C520.347961,250.795349 520.255127,235.516846 519.917358,220.262482 
	C519.657654,208.535767 518.688782,196.823288 517.965393,185.108795 
	C517.364502,175.377808 516.661804,165.653137 516.291016,155.668961 
	C517.314880,156.685242 518.325684,157.873917 518.747681,159.243942 
	C524.288635,177.233551 528.650391,195.446472 529.138367,214.403030 
	C529.177673,215.929367 530.280396,217.428299 530.888977,218.939957 
	C530.927124,233.216934 531.733948,247.545059 530.788025,261.756531 
	C529.835754,276.064758 526.578003,290.111389 521.016968,303.498566 
	C518.781250,308.880463 516.871582,314.397766 514.460205,319.965088 
z"/>
<path fill="#0C5127" opacity="1.000000" stroke="none" 
	d="
M479.995117,374.000000 
	C479.581543,373.235413 478.626129,372.240143 478.838257,371.741882 
	C480.968536,366.737732 483.303101,361.820892 485.553558,356.867371 
	C486.853210,354.006622 487.954498,351.045929 489.402069,348.263916 
	C496.851379,333.947266 500.545746,318.626740 501.752228,302.634918 
	C501.849670,301.343292 501.937531,299.735016 501.294159,298.758667 
	C498.651550,294.748383 500.188293,290.989227 501.123749,286.920471 
	C502.064911,282.826721 501.952118,278.494293 502.360077,274.272156 
	C502.484436,272.984924 502.838409,271.721588 503.024109,270.438171 
	C503.206573,269.177216 503.897156,267.204712 503.353424,266.747681 
	C498.918030,263.019470 501.203857,259.299469 502.462097,255.089508 
	C503.301361,252.281479 502.827454,248.761581 501.989624,245.832458 
	C499.609833,237.512466 499.192810,229.257278 500.934052,220.781250 
	C501.247559,219.255051 500.181152,217.445374 499.668518,215.440765 
	C503.574890,213.161591 502.508362,210.605179 500.942657,206.614166 
	C498.609711,200.667435 498.276276,193.947357 496.969421,187.581512 
	C496.454651,185.074020 495.609955,182.634262 494.761108,179.591461 
	C497.087128,176.684189 499.567535,174.349121 502.376343,172.108383 
	C503.343964,172.895248 504.473572,173.540802 504.545074,174.287689 
	C505.140472,180.505524 505.535889,186.742401 506.001282,192.972824 
	C506.569183,200.575882 507.521545,208.173035 507.627045,215.782181 
	C507.766785,225.865387 507.131592,235.956985 507.069824,246.046463 
	C507.045563,250.011536 508.098633,253.999069 507.928101,257.944702 
	C507.053772,278.173004 506.230896,298.411530 504.799622,318.604675 
	C503.970001,330.308899 502.783783,342.134308 495.671204,352.256317 
	C495.150482,352.997375 495.240265,354.167389 495.046204,355.138000 
	C495.046204,355.138000 494.972015,355.584381 494.620667,355.921417 
	C493.527344,357.531982 492.785339,358.805542 492.043335,360.079102 
	C492.043335,360.079071 492.017914,360.016876 491.710999,360.104401 
	C488.877045,361.476868 487.400269,363.166718 489.129028,366.092529 
	C488.609711,366.645203 488.090363,367.197906 486.972412,367.921143 
	C484.247589,370.061096 482.121338,372.030548 479.995117,374.000000 
z"/>
<path fill="#0D4F26" opacity="1.000000" stroke="none" 
	d="
M496.941162,113.611725 
	C496.669525,116.659348 495.212433,119.728767 495.980927,122.066574 
	C498.905518,130.963455 501.607422,139.835190 500.906616,149.308136 
	C500.749420,151.433578 499.454651,153.474869 498.078491,155.622879 
	C489.820160,147.784882 482.166870,139.878922 474.513580,131.972946 
	C474.827911,127.930267 475.927338,123.761780 475.303650,119.869415 
	C473.684692,109.766197 471.192383,99.806412 469.276703,89.745956 
	C468.121765,83.680473 469.190369,82.480537 474.770020,82.915070 
	C480.478210,89.787453 485.927063,96.569473 491.079895,103.569405 
	C493.295532,106.579239 494.897156,110.041069 496.941162,113.611725 
z"/>
<path fill="#0B5729" opacity="1.000000" stroke="none" 
	d="
M495.320038,354.981323 
	C495.240265,354.167389 495.150482,352.997375 495.671204,352.256317 
	C502.783783,342.134308 503.970001,330.308899 504.799622,318.604675 
	C506.230896,298.411530 507.053772,278.173004 507.928101,257.944702 
	C508.098633,253.999069 507.045563,250.011536 507.069824,246.046463 
	C507.131592,235.956985 507.766785,225.865387 507.627045,215.782181 
	C507.521545,208.173035 506.569183,200.575882 506.001282,192.972824 
	C505.535889,186.742401 505.140472,180.505524 504.545074,174.287689 
	C504.473572,173.540802 503.343964,172.895248 502.513275,171.808975 
	C503.770508,170.055252 505.219238,168.695282 506.667969,167.335297 
	C511.289093,177.767853 514.523010,188.434952 512.285217,200.050644 
	C512.098022,201.022369 511.841705,202.114456 512.094360,203.017212 
	C515.933716,216.737122 513.326111,230.819839 514.372681,244.712662 
	C515.767761,263.233185 514.545959,281.791351 511.540771,300.210052 
	C510.130127,308.855652 509.617035,317.647705 508.823425,327.051819 
	C508.631714,329.153168 508.313843,330.576111 507.764465,332.157349 
	C507.397583,333.233917 507.262177,334.152222 507.126770,335.070526 
	C503.282471,341.655243 499.438171,348.239960 495.320038,354.981323 
z"/>
<path fill="#136334" opacity="1.000000" stroke="none" 
	d="
M530.928467,218.478546 
	C530.280396,217.428299 529.177673,215.929367 529.138367,214.403030 
	C528.650391,195.446472 524.288635,177.233551 518.747681,159.243942 
	C518.325684,157.873917 517.314880,156.685242 516.292419,155.199463 
	C514.243958,149.492752 512.480835,143.998840 510.874756,138.233612 
	C514.005798,144.149246 517.607117,150.120392 519.824463,156.567535 
	C524.592834,170.432190 529.007202,184.464279 530.019226,199.250732 
	C530.446899,205.498566 530.658325,211.761215 530.928467,218.478546 
z"/>
<path fill="#124D28" opacity="1.000000" stroke="none" 
	d="
M471.992462,383.999420 
	C472.181671,384.006927 472.370880,384.014465 472.844238,384.035889 
	C466.462250,391.088959 460.336853,398.763824 452.995270,405.009003 
	C443.482056,413.101471 433.024323,420.088531 422.899689,427.450348 
	C421.767700,428.273346 420.157684,428.438965 418.400574,428.887390 
	C421.004639,426.419617 423.911896,423.888519 426.963196,421.544891 
	C434.822144,415.508575 442.744843,409.555237 451.154846,403.203979 
	C453.212769,401.625244 454.865692,400.524628 456.283905,399.177032 
	C461.561859,394.161804 466.762695,389.065369 471.992462,383.999420 
z"/>
<path fill="#124D28" opacity="1.000000" stroke="none" 
	d="
M376.432343,448.880341 
	C376.278687,448.413727 376.412994,447.734741 376.769012,447.585876 
	C385.258972,444.035370 393.772736,440.541687 402.680603,437.040497 
	C402.972076,437.352905 402.948456,437.857849 402.746246,437.944061 
	C394.115295,441.624329 385.468445,445.267334 376.432343,448.880341 
z"/>
<path fill="#124D28" opacity="1.000000" stroke="none" 
	d="
M403.391357,437.005066 
	C406.483002,435.077606 409.936005,433.075012 413.777679,431.058716 
	C410.695129,433.006653 407.223907,434.968323 403.391357,437.005066 
z"/>
<path fill="#0B5729" opacity="1.000000" stroke="none" 
	d="
M480.251984,374.126831 
	C482.121338,372.030548 484.247589,370.061096 486.725830,368.066010 
	C485.584137,370.243317 484.090454,372.446320 482.321381,374.836548 
	C481.533600,374.767090 481.021240,374.510376 480.251984,374.126831 
z"/>
<path fill="#0B5729" opacity="1.000000" stroke="none" 
	d="
M489.370239,365.852875 
	C487.400269,363.166718 488.877045,361.476868 491.742218,360.116791 
	C491.257416,361.898865 490.434418,363.756042 489.370239,365.852875 
z"/>
<path fill="#095F2B" opacity="1.000000" stroke="none" 
	d="
M507.995972,331.999084 
	C508.313843,330.576111 508.631714,329.153168 508.976013,327.365723 
	C509.478027,327.009735 509.953644,327.018219 510.786285,327.038940 
	C510.628845,328.557434 510.114319,330.063690 509.080444,331.797607 
	C508.372711,332.016571 508.184357,332.007843 507.995972,331.999084 
z"/>
<path fill="#0B5729" opacity="1.000000" stroke="none" 
	d="
M492.365417,359.985352 
	C492.785339,358.805542 493.527344,357.531982 494.567535,356.141357 
	C494.139679,357.313354 493.413574,358.602509 492.365417,359.985352 
z"/>
<path fill="#0A5929" opacity="1.000000" stroke="none" 
	d="
M507.764465,332.157349 
	C508.184357,332.007843 508.372711,332.016571 508.843781,332.041382 
	C508.612793,332.929352 508.099091,333.801239 507.356079,334.871826 
	C507.262177,334.152222 507.397583,333.233917 507.764465,332.157349 
z"/>
<path fill="#124D28" opacity="1.000000" stroke="none" 
	d="
M416.289001,429.786743 
	C416.272369,429.645569 416.494019,429.437927 416.934692,429.132416 
	C416.960968,429.273773 416.752136,429.502319 416.289001,429.786743 
z"/>
<path fill="#095F2B" opacity="1.000000" stroke="none" 
	d="
M512.253296,326.825623 
	C512.202698,326.666077 512.385315,326.467194 512.746704,326.160583 
	C512.882874,326.352814 512.736572,326.597321 512.253296,326.825623 
z"/>
<path fill="#7ED5A4" opacity="1.000000" stroke="none" 
	d="
M506.822296,167.012421 
	C505.219238,168.695282 503.770508,170.055252 502.184875,171.714630 
	C499.567535,174.349121 497.087128,176.684189 494.429138,179.317947 
	C490.889771,182.811493 487.528015,186.006363 483.737305,189.659851 
	C474.598969,198.765060 465.889557,207.411652 457.180145,216.058243 
	C453.242737,219.876587 449.305298,223.694946 444.911377,227.929260 
	C444.302155,229.885239 444.149475,231.425247 443.996826,232.965271 
	C443.949402,236.018890 443.902008,239.072510 443.800995,242.951141 
	C443.832397,248.837921 443.917389,253.899689 444.002380,258.961456 
	C443.425690,260.439209 442.848999,261.916931 441.835876,263.845245 
	C432.369354,272.879639 423.220917,281.344177 414.376068,290.114868 
	C411.459930,293.006500 409.328125,296.689148 406.427643,300.010925 
	C404.215057,300.271515 402.419769,300.666687 400.608551,300.763184 
	C396.704956,300.971222 393.379486,299.966980 391.600342,296.016235 
	C388.079956,288.198944 380.736694,285.751678 373.538147,289.931641 
	C368.212189,284.982635 363.345673,279.985596 358.117432,275.401031 
	C353.944275,271.741638 350.058075,268.468628 351.863037,261.900665 
	C352.501221,259.578339 351.302155,256.751129 351.069061,255.071213 
	C346.832733,252.281525 343.072235,250.046799 339.605774,247.423462 
	C337.794403,246.052628 336.602509,243.894608 334.955292,242.270157 
	C325.738922,233.181198 316.387268,224.228043 307.245544,215.065216 
	C300.965912,208.771118 294.952271,202.211639 288.650055,195.592545 
	C277.724091,206.005310 267.785278,215.477249 257.487000,224.888123 
	C254.738159,219.850677 252.348801,214.874298 249.996918,209.671478 
	C250.159637,209.130844 250.389130,208.946243 251.087570,208.875275 
	C252.293961,207.887222 253.135635,206.915115 254.112335,205.638824 
	C261.183533,197.917618 268.119720,190.500595 275.055908,183.083572 
	C276.924042,181.567459 278.792175,180.051346 281.138672,178.119431 
	C284.446106,174.550827 287.275208,171.398026 290.078491,168.234161 
	C290.052704,168.223099 290.018158,168.178879 290.238556,168.186569 
	C290.742950,168.045151 290.930603,167.816528 291.021881,167.508392 
	C296.251801,162.209503 301.481720,156.910599 306.824554,151.297592 
	C312.184143,143.407730 319.670135,142.294449 328.227783,142.838013 
	C336.809967,143.383102 345.456451,142.915176 354.535309,142.800446 
	C360.150757,142.788940 365.341644,143.252472 370.444305,142.774368 
	C372.757599,142.557602 375.312286,140.892441 377.048676,139.169830 
	C393.331635,123.016029 409.460907,106.707352 425.800293,90.144257 
	C428.032837,87.711136 429.873047,88.217865 431.809357,90.152771 
	C440.234833,98.571983 448.697662,106.954048 457.180115,115.315933 
	C462.723236,120.780266 468.323303,126.186813 474.205750,131.796097 
	C482.166870,139.878922 489.820160,147.784882 497.780121,155.834229 
	C500.488922,158.387878 502.972900,160.724304 505.250031,163.247330 
	C506.079102,164.165924 506.415466,165.529175 506.822296,167.012421 
M392.873199,196.633240 
	C403.794189,208.430008 416.742035,216.268509 433.486389,217.863388 
	C433.486389,212.378998 433.486389,207.482407 433.486389,202.618668 
	C412.072479,200.526093 391.669312,181.790161 391.419220,155.121063 
	C386.972656,154.793243 382.485352,154.462418 377.569122,154.099960 
	C377.053986,170.696869 382.564453,184.155548 392.873199,196.633240 
z"/>
<path fill="#070707" opacity="1.000000" stroke="none" 
	d="
M257.846466,224.949219 
	C267.785278,215.477249 277.724091,206.005310 288.650055,195.592545 
	C294.952271,202.211639 300.965912,208.771118 307.245544,215.065216 
	C316.387268,224.228043 325.738922,233.181198 334.955292,242.270157 
	C336.602509,243.894608 337.794403,246.052628 339.605774,247.423462 
	C343.072235,250.046799 346.832733,252.281525 351.069061,255.071213 
	C351.302155,256.751129 352.501221,259.578339 351.863037,261.900665 
	C350.058075,268.468628 353.944275,271.741638 358.117432,275.401031 
	C363.345673,279.985596 368.212189,284.982635 373.668610,290.244934 
	C377.089386,294.068481 380.076416,297.448792 383.050659,301.226379 
	C382.868835,303.142975 382.699707,304.662262 382.488708,306.557983 
	C376.982269,304.517517 372.683289,297.141541 366.490509,304.327515 
	C358.361908,296.312683 350.523560,288.471069 342.743683,280.571808 
	C340.448151,278.241058 338.431549,277.736481 335.427551,279.810822 
	C326.924347,285.682587 326.829590,285.545380 332.988708,294.010529 
	C328.351044,296.929321 324.728607,299.979858 326.417236,306.009399 
	C326.498108,306.298157 325.885681,306.781128 325.298035,307.042358 
	C321.751404,303.727966 318.502838,300.544891 315.367584,297.472839 
	C304.991425,304.720947 304.613739,305.407318 306.781738,312.177124 
	C303.010468,314.616791 300.253326,317.170959 300.759186,321.950806 
	C300.861786,322.920197 299.433441,324.051666 298.411499,324.959747 
	C294.880127,320.763611 291.610870,322.165314 288.330505,324.741455 
	C284.173004,328.006500 284.564880,332.424438 284.941620,337.119934 
	C281.722473,340.655457 278.801422,343.986237 275.561188,347.161621 
	C273.669373,346.037354 272.029724,344.166565 270.537262,344.277435 
	C266.827118,344.553070 261.982025,351.753082 261.785706,356.387085 
	C257.620789,359.489258 253.637482,362.312195 249.359131,364.999084 
	C246.153091,361.914520 243.239731,358.968292 240.331451,356.017059 
	C224.597748,340.050995 208.922333,324.026917 193.102661,308.146515 
	C187.259445,302.280853 181.077667,296.752533 174.997620,290.725464 
	C174.075104,289.193939 173.362122,287.841461 172.310562,286.846924 
	C164.030884,279.016083 155.581726,271.360687 147.441559,263.389038 
	C145.589218,261.575043 144.084320,258.869873 143.579880,256.343201 
	C142.846817,252.671570 143.167404,248.789597 143.038666,244.997314 
	C143.287521,244.203110 143.536377,243.408905 143.931732,241.921173 
	C144.375763,239.083008 144.673309,236.938400 145.400604,234.785156 
	C150.282944,235.153183 154.804489,236.221924 159.176117,235.786224 
	C177.730072,233.937119 192.432602,224.945786 203.707825,210.290726 
	C215.409195,195.081741 220.673904,178.056625 217.274948,158.867538 
	C217.008667,157.364197 215.287308,155.096222 214.057236,154.968796 
	C209.529129,154.499634 204.923111,154.782547 199.977051,154.782547 
	C200.218323,156.714279 200.251480,157.348999 200.380966,157.963409 
	C206.376175,186.408188 188.606003,213.271576 160.134247,218.337082 
	C153.043671,219.598587 145.764557,219.800323 138.572098,220.489166 
	C126.235428,209.470856 113.898766,198.452545 101.022614,187.044647 
	C97.261642,183.685333 94.040169,180.715576 90.978378,177.456482 
	C100.150230,167.901566 109.109879,158.584152 118.186729,149.382370 
	C132.275146,135.100037 146.443405,120.896461 160.577805,106.659500 
	C167.501236,113.070137 174.409439,119.497368 181.359711,125.878777 
	C182.932556,127.322891 184.651581,128.607803 186.627563,130.090744 
	C190.806992,134.108582 194.440948,138.264175 198.613724,141.780334 
	C200.602783,143.456390 203.593521,144.708405 206.170105,144.782837 
	C214.794724,145.031937 223.442535,144.455475 232.069077,144.677277 
	C234.225327,144.732697 236.335083,146.596771 238.758331,147.810516 
	C248.103455,156.301025 257.156433,164.610641 266.527588,173.018433 
	C266.845764,173.116608 266.890167,173.101929 266.969971,173.386993 
	C267.674164,174.457153 268.298584,175.242218 268.923004,176.027298 
	C270.837982,178.197281 272.752960,180.367264 274.861938,182.810410 
	C268.119720,190.500595 261.183533,197.917618 253.811401,205.751129 
	C252.491241,207.075470 251.607056,207.983337 250.722855,208.891220 
	C250.389130,208.946243 250.159637,209.130844 249.686584,209.807602 
	C245.242294,214.017426 241.003189,217.726181 237.092026,221.753448 
	C233.642105,225.305771 233.572678,230.386078 236.498901,233.435989 
	C240.019669,237.105576 244.431427,237.690628 248.437119,234.369827 
	C251.838898,231.549667 254.729630,228.113068 257.846466,224.949219 
M143.802597,162.344482 
	C133.241089,175.318771 137.078247,190.286316 153.020096,198.288086 
	C161.298737,202.443405 169.042648,200.707047 175.816193,195.268051 
	C182.850464,189.619705 186.618042,181.842392 184.558624,172.821106 
	C180.123123,153.391312 158.893799,147.773514 143.802597,162.344482 
M305.671661,252.380325 
	C302.736328,258.334351 303.038818,259.721893 308.498260,265.345551 
	C312.650543,269.622742 319.387604,268.959412 322.584381,263.958588 
	C325.876312,258.809052 324.673126,251.685959 319.952332,248.375870 
	C315.700165,245.394379 310.376984,246.677567 305.671661,252.380325 
z"/>
<path fill="#1C3128" opacity="1.000000" stroke="none" 
	d="
M290.104309,168.245224 
	C287.275208,171.398026 284.446106,174.550827 281.301666,177.831940 
	C280.187195,173.519882 279.409149,169.085770 285.103638,166.417786 
	C287.224945,167.060135 288.664612,167.652679 290.104309,168.245224 
z"/>
<path fill="#2C3D39" opacity="1.000000" stroke="none" 
	d="
M290.078491,168.234161 
	C288.664612,167.652679 287.224945,167.060135 285.390198,166.234100 
	C286.174347,165.553818 287.353546,165.107025 288.873322,165.377258 
	C289.481995,166.789139 289.750092,167.484009 290.018158,168.178879 
	C290.018158,168.178879 290.052704,168.223099 290.078491,168.234161 
z"/>
<path fill="#1D3028" opacity="1.000000" stroke="none" 
	d="
M269.174316,175.931091 
	C268.298584,175.242218 267.674164,174.457153 266.985657,173.370285 
	C267.756256,173.990631 268.590973,174.912766 269.174316,175.931091 
z"/>
<path fill="#1D3028" opacity="1.000000" stroke="none" 
	d="
M269.699310,91.963821 
	C269.898743,91.887733 270.093567,91.935051 270.288422,91.982368 
	C270.090515,92.017319 269.892639,92.052269 269.699310,91.963821 
z"/>
<path fill="#1C3128" opacity="1.000000" stroke="none" 
	d="
M290.238556,168.186569 
	C289.750092,167.484009 289.481995,166.789139 289.119354,165.550049 
	C289.635773,165.617615 290.246735,166.229401 290.939789,167.174789 
	C290.930603,167.816528 290.742950,168.045151 290.238556,168.186569 
z"/>
<path fill="#0A0709" opacity="1.000000" stroke="none" 
	d="
M275.880371,347.317017 
	C278.801422,343.986237 281.722473,340.655457 285.246002,337.245026 
	C291.575073,342.642303 297.370667,348.049225 303.015442,353.609192 
	C320.384155,370.716858 337.627869,387.952484 355.133118,404.918701 
	C356.875854,406.607819 360.462677,408.015472 362.499695,407.368561 
	C365.032440,406.564209 368.141968,403.747833 368.631042,401.322235 
	C369.219757,398.402344 368.266357,394.140930 366.315063,391.930603 
	C360.176056,384.976562 353.268127,378.699799 346.637299,372.181793 
	C330.668030,356.484344 314.687103,340.798798 298.710876,325.108429 
	C299.433441,324.051666 300.861786,322.920197 300.759186,321.950806 
	C300.253326,317.170959 303.010468,314.616791 307.070801,312.350281 
	C309.245850,314.145874 310.790466,316.113983 312.550934,317.865021 
	C327.509064,332.743042 342.472565,347.616089 357.503418,362.420563 
	C368.614807,373.364655 379.829407,384.203949 390.999329,395.496094 
	C390.964142,399.273773 390.957428,401.632538 395.984894,401.686310 
	C399.540192,401.724396 402.542847,401.228638 405.810211,400.254486 
	C407.353973,399.794189 409.337585,400.809174 411.121918,401.155701 
	C402.785492,411.395721 395.096039,412.321289 382.801025,404.896729 
	C379.010376,409.859711 375.273193,414.752655 371.272491,419.855835 
	C359.915344,426.317902 351.408112,420.162567 342.707275,413.252563 
	C342.136047,416.509949 342.052368,419.009399 341.242859,421.246094 
	C338.093506,429.947723 327.784790,433.975250 318.830933,429.495728 
	C314.167786,427.162781 310.179260,423.469330 305.923737,420.339111 
	C304.072876,418.977661 302.317017,417.487183 300.138580,415.665344 
	C293.300995,408.698425 286.895142,402.069061 280.372559,395.556580 
	C270.174622,385.374481 259.897644,375.271576 249.654160,365.135132 
	C253.637482,362.312195 257.620789,359.489258 262.069733,356.554321 
	C267.286346,361.549133 271.907532,366.784790 276.818359,371.732971 
	C284.419861,379.392365 292.196869,386.878387 299.941101,394.395050 
	C306.968719,401.216187 313.988800,408.048340 321.176910,414.697571 
	C322.292877,415.729889 324.505646,416.579926 325.843109,416.204132 
	C333.647705,414.011169 335.434753,404.736938 330.402649,400.591370 
	C324.776062,395.956085 319.762939,390.568848 314.547821,385.442749 
	C301.638885,372.754272 288.767090,360.028076 275.880371,347.317017 
z"/>
<path fill="#7BD5A2" opacity="1.000000" stroke="none" 
	d="
M249.359131,364.999084 
	C259.897644,375.271576 270.174622,385.374481 280.372559,395.556580 
	C286.895142,402.069061 293.300995,408.698425 299.785583,415.614624 
	C297.226288,418.962006 294.640564,421.970123 291.948914,425.283752 
	C290.621277,426.375885 289.399597,427.162476 288.006866,428.059265 
	C281.929138,422.305695 276.032715,416.723755 269.686401,410.680969 
	C266.317780,407.118103 263.289459,404.110596 260.511047,400.887634 
	C257.732361,397.664215 255.679062,398.757294 254.063721,401.798340 
	C250.132492,409.199249 239.014359,410.542999 233.687531,404.170990 
	C226.822845,395.959503 229.310425,386.821381 240.456543,381.122070 
	C235.821808,376.712738 231.343689,372.452423 227.036087,368.354309 
	C223.917953,373.187164 221.728134,377.980896 218.280304,381.564117 
	C214.145935,385.860870 208.869232,384.595428 203.881531,381.618500 
	C197.706238,373.469971 197.682007,366.724701 203.544312,360.803040 
	C206.058136,358.263763 210.603821,355.245483 210.288498,352.997131 
	C209.848633,349.860840 205.830139,347.130219 203.141617,344.426300 
	C198.107117,339.362976 195.670792,339.790619 192.499817,345.927856 
	C191.422333,344.532471 190.141617,343.222748 190.101410,341.875977 
	C189.957794,337.065369 187.956009,334.176208 183.172989,332.871826 
	C181.886444,332.520996 181.073257,330.434326 180.367096,328.940491 
	C182.113876,328.117828 183.536331,327.499146 185.587006,326.607269 
	C183.326233,324.243164 181.650208,322.450531 179.930923,320.700378 
	C175.311768,315.998169 170.521027,311.449127 166.168076,306.513275 
	C165.256638,305.479797 165.180786,302.497559 166.013443,301.361053 
	C168.701004,297.692902 171.991928,294.466827 175.050293,291.070343 
	C181.077667,296.752533 187.259445,302.280853 193.102661,308.146515 
	C208.922333,324.026917 224.597748,340.050995 240.331451,356.017059 
	C243.239731,358.968292 246.153091,361.914520 249.359131,364.999084 
M190.695114,334.087158 
	C190.892792,334.052246 191.090454,334.017334 191.288116,333.982422 
	C191.093506,333.935150 190.898880,333.887848 190.695114,334.087158 
z"/>
<path fill="#232C2B" opacity="1.000000" stroke="none" 
	d="
M204.028793,381.922760 
	C208.869232,384.595428 214.145935,385.860870 218.280304,381.564117 
	C221.728134,377.980896 223.917953,373.187164 227.036087,368.354309 
	C231.343689,372.452423 235.821808,376.712738 240.456543,381.122070 
	C229.310425,386.821381 226.822845,395.959503 233.687531,404.170990 
	C239.014359,410.542999 250.132492,409.199249 254.063721,401.798340 
	C255.679062,398.757294 257.732361,397.664215 260.511047,400.887634 
	C263.289459,404.110596 266.317780,407.118103 269.408569,410.531128 
	C265.985535,410.487640 262.296326,410.521576 258.819427,409.679199 
	C254.574539,408.650757 253.174255,410.169220 251.730698,414.093903 
	C249.479126,420.215424 245.962708,425.861115 243.242188,431.826965 
	C242.395660,433.683289 242.080734,435.920349 242.061188,437.988190 
	C242.012985,443.085541 241.346924,447.429840 235.567368,449.474091 
	C231.529175,450.902405 234.742325,453.932770 234.922501,456.609314 
	C218.834305,451.130707 202.672302,445.303467 186.347717,438.902283 
	C190.323837,432.782867 193.835648,427.115845 190.379623,420.012756 
	C191.549164,416.924805 191.964966,413.757294 192.346909,410.585724 
	C192.678329,407.833679 192.915619,405.069366 193.291992,402.323822 
	C194.401169,394.232422 200.323853,388.658112 204.028793,381.922760 
z"/>
<path fill="#27292F" opacity="1.000000" stroke="none" 
	d="
M203.881531,381.618500 
	C200.323853,388.658112 194.401169,394.232422 193.291992,402.323822 
	C192.915619,405.069366 192.678329,407.833679 192.346909,410.585724 
	C191.964966,413.757294 191.549164,416.924805 190.379623,420.012756 
	C193.835648,427.115845 190.323837,432.782867 186.092346,438.667236 
	C182.329773,437.174500 178.698730,435.258331 174.972137,433.550690 
	C173.357986,432.811035 171.546906,432.501129 169.443192,431.983795 
	C168.246628,431.355560 167.432159,430.739502 166.309692,430.060852 
	C163.537552,428.097076 161.073380,426.195923 158.302521,423.731903 
	C158.318909,417.186310 158.668747,411.204895 158.953369,405.220367 
	C159.086807,402.414185 159.598511,399.496307 159.036926,396.818207 
	C158.261169,393.118866 156.453018,389.677338 159.099945,385.950439 
	C159.717972,385.080231 159.701202,383.306549 159.275909,382.223724 
	C157.033371,376.514404 157.248077,370.947479 159.513504,365.316956 
	C159.966644,364.190735 160.410324,362.515472 159.906921,361.641266 
	C157.329529,357.165283 157.842621,353.564850 160.431061,348.857391 
	C164.339645,341.749023 163.653275,341.371613 171.011047,345.357666 
	C173.262085,352.426666 175.760910,354.640350 181.414780,354.801605 
	C187.154755,354.965363 190.273865,352.566895 192.865646,345.996490 
	C195.670792,339.790619 198.107117,339.362976 203.141617,344.426300 
	C205.830139,347.130219 209.848633,349.860840 210.288498,352.997131 
	C210.603821,355.245483 206.058136,358.263763 203.544312,360.803040 
	C197.682007,366.724701 197.706238,373.469971 203.881531,381.618500 
z"/>
<path fill="#2A2933" opacity="1.000000" stroke="none" 
	d="
M170.869629,345.004974 
	C163.653275,341.371613 164.339645,341.749023 160.431061,348.857391 
	C157.842621,353.564850 157.329529,357.165283 159.906921,361.641266 
	C160.410324,362.515472 159.966644,364.190735 159.513504,365.316956 
	C157.248077,370.947479 157.033371,376.514404 159.275909,382.223724 
	C159.701202,383.306549 159.717972,385.080231 159.099945,385.950439 
	C156.453018,389.677338 158.261169,393.118866 159.036926,396.818207 
	C159.598511,399.496307 159.086807,402.414185 158.953369,405.220367 
	C158.668747,411.204895 158.318909,417.186310 157.998550,423.574585 
	C154.242920,421.668060 150.484528,419.356018 146.364014,417.020996 
	C144.460495,415.184113 142.919083,413.370178 141.184540,411.288116 
	C139.512207,406.459198 137.666809,401.979401 136.636246,397.319427 
	C134.921692,389.566620 130.657043,382.325653 132.569855,373.766205 
	C133.234909,370.790222 131.763901,367.331146 131.240479,364.097229 
	C130.840714,361.627289 130.140411,359.175781 130.030869,356.695923 
	C129.853333,352.677307 129.764313,348.614471 130.150940,344.619934 
	C130.890228,336.981659 128.886337,329.175476 131.996918,321.645477 
	C133.322266,318.437103 130.350113,314.088898 134.317230,311.248260 
	C134.467407,311.140717 133.829742,309.274719 133.154633,308.777557 
	C128.074341,305.036255 129.644760,300.014923 130.295349,295.121338 
	C130.634155,292.572815 130.683334,289.981567 131.100769,287.448761 
	C131.647003,284.134216 132.457718,280.864014 133.088852,277.562164 
	C133.265305,276.639008 133.635895,275.326263 133.192780,274.779480 
	C129.898132,270.714233 132.252350,268.421295 135.406815,265.901154 
	C137.219498,264.452972 137.974213,262.927979 135.767288,260.159180 
	C134.505554,258.576202 135.547409,252.770950 137.276382,251.729538 
	C140.124039,250.014313 140.704102,247.388870 142.723419,245.146332 
	C143.167404,248.789597 142.846817,252.671570 143.579880,256.343201 
	C144.084320,258.869873 145.589218,261.575043 147.441559,263.389038 
	C155.581726,271.360687 164.030884,279.016083 172.310562,286.846924 
	C173.362122,287.841461 174.075104,289.193939 174.997620,290.725464 
	C171.991928,294.466827 168.701004,297.692902 166.013443,301.361053 
	C165.180786,302.497559 165.256638,305.479797 166.168076,306.513275 
	C170.521027,311.449127 175.311768,315.998169 179.930923,320.700378 
	C181.650208,322.450531 183.326233,324.243164 185.587006,326.607269 
	C183.536331,327.499146 182.113876,328.117828 180.022217,328.988342 
	C172.185593,332.159882 170.554352,338.058685 170.869629,345.004974 
z"/>
<path fill="#312C3C" opacity="1.000000" stroke="none" 
	d="
M90.818687,177.745819 
	C94.040169,180.715576 97.261642,183.685333 100.734184,186.889542 
	C100.598473,190.099823 100.170006,193.071182 99.849281,196.054123 
	C99.747467,197.000992 99.935768,197.978607 99.986137,198.942413 
	C100.284706,204.656067 101.416756,210.484680 100.650734,216.052063 
	C99.841583,221.932968 100.324310,227.251144 102.546082,232.583115 
	C104.495758,237.262070 106.234100,241.912659 102.795784,246.736771 
	C102.279045,247.461777 102.044502,248.755188 102.296883,249.601532 
	C103.942757,255.121017 102.880989,259.703461 98.304062,263.456879 
	C97.652130,263.991516 97.431290,265.645752 97.692276,266.594299 
	C98.687462,270.211243 100.432297,273.678619 100.998260,277.340820 
	C101.556740,280.954498 101.226707,284.752167 100.931549,288.440704 
	C100.434677,294.649902 99.338104,300.824921 99.110512,307.036926 
	C98.960693,311.126190 99.971886,315.248871 100.297028,319.369720 
	C100.408318,320.780243 100.456612,322.508392 99.765297,323.608673 
	C97.976273,326.455933 97.961395,328.750580 100.474655,331.155823 
	C101.191223,331.841614 101.879234,333.743835 101.502213,334.203064 
	C97.519569,339.053772 101.618851,343.182373 102.336845,347.627991 
	C102.623566,349.403320 102.281273,351.690308 101.332756,353.173584 
	C99.045784,356.750000 100.207573,359.920074 101.816849,363.059265 
	C104.388451,368.075623 107.244881,372.945679 109.834862,377.953125 
	C110.497665,379.234589 110.612640,380.799438 110.985657,382.622467 
	C102.993050,372.973175 94.838905,363.053467 87.072014,352.839325 
	C83.993973,348.791412 81.775932,344.089508 79.080521,339.346985 
	C77.557640,332.394409 75.979919,325.806030 74.762955,319.151642 
	C74.359528,316.945709 74.953323,314.570526 74.971054,312.271851 
	C75.016914,306.324921 75.047188,300.376923 74.985214,294.430420 
	C74.935974,289.705780 77.880737,284.991669 74.448158,280.119537 
	C73.729904,279.100067 76.158760,276.085358 76.711159,273.883148 
	C77.214233,271.877594 77.897591,269.405609 77.175911,267.700134 
	C74.984558,262.521423 74.277679,257.488953 74.689049,251.772614 
	C75.314766,243.077805 74.625679,234.282501 74.384087,225.532944 
	C74.179024,218.106018 73.727570,210.684891 73.605896,203.257599 
	C73.583649,201.899841 74.715492,200.553696 75.148567,199.150955 
	C75.827652,196.951309 77.374184,194.383255 76.781303,192.541733 
	C74.667641,185.976624 79.296638,181.095169 80.374298,175.382858 
	C80.546616,174.469437 82.228798,173.840881 83.804260,173.288910 
	C86.536583,174.913391 88.677635,176.329605 90.818687,177.745819 
z"/>
<path fill="#7AD7A3" opacity="1.000000" stroke="none" 
	d="
M138.500732,220.903595 
	C145.764557,219.800323 153.043671,219.598587 160.134247,218.337082 
	C188.606003,213.271576 206.376175,186.408188 200.380966,157.963409 
	C200.251480,157.348999 200.218323,156.714279 199.977051,154.782547 
	C204.923111,154.782547 209.529129,154.499634 214.057236,154.968796 
	C215.287308,155.096222 217.008667,157.364197 217.274948,158.867538 
	C220.673904,178.056625 215.409195,195.081741 203.707825,210.290726 
	C192.432602,224.945786 177.730072,233.937119 159.176117,235.786224 
	C154.804489,236.221924 150.282944,235.153183 145.227264,234.561066 
	C144.082169,234.229996 143.540176,234.114395 142.998169,233.998795 
	C137.621628,231.160294 137.362793,226.477905 138.500732,220.903595 
z"/>
<path fill="#2A2933" opacity="1.000000" stroke="none" 
	d="
M143.016266,234.337326 
	C143.540176,234.114395 144.082169,234.229996 144.797516,234.569687 
	C144.673309,236.938400 144.375763,239.083008 143.945984,241.607513 
	C143.553940,239.550201 143.294144,237.113037 143.016266,234.337326 
z"/>
<path fill="#79D3A1" opacity="1.000000" stroke="none" 
	d="
M90.978378,177.456482 
	C88.677635,176.329605 86.536583,174.913391 84.174805,173.250244 
	C81.979897,170.904404 80.005722,168.805466 77.571548,166.217484 
	C79.762909,163.688004 82.050995,161.046890 84.759811,157.939148 
	C90.294586,152.085159 95.321243,146.611389 100.543556,141.331131 
	C107.971123,133.821121 115.542496,126.453323 123.052429,119.024765 
	C133.646652,108.376289 144.240860,97.727814 155.014359,86.823166 
	C157.631561,84.749321 159.615280,84.770950 162.188477,86.940437 
	C171.109390,94.461693 171.205551,94.330009 163.301575,102.903137 
	C162.405029,103.875572 161.667587,104.994713 160.717102,106.352661 
	C146.443405,120.896461 132.275146,135.100037 118.186729,149.382370 
	C109.109879,158.584152 100.150230,167.901566 90.978378,177.456482 
z"/>
<path fill="#322B3C" opacity="1.000000" stroke="none" 
	d="
M122.771049,118.847664 
	C115.542496,126.453323 107.971123,133.821121 100.543556,141.331131 
	C95.321243,146.611389 90.294586,152.085159 84.895752,157.642731 
	C81.423538,155.415512 78.109322,153.162552 75.119881,150.539459 
	C74.120384,149.662430 73.643074,147.876358 73.472603,146.441055 
	C73.208015,144.213226 73.410774,141.929886 73.216972,139.339081 
	C78.805809,126.627365 85.330399,114.701866 94.692162,104.171326 
	C95.197144,104.596298 95.698654,105.251259 95.605980,105.807159 
	C94.274261,113.795074 95.361565,114.986954 103.398232,113.820328 
	C103.578964,115.242897 103.759003,116.660019 104.079445,119.182266 
	C107.707130,118.800514 112.559212,119.734161 114.733727,117.743279 
	C118.583252,114.218842 120.134483,116.793404 122.771049,118.847664 
z"/>
<path fill="#0D4A25" opacity="1.000000" stroke="none" 
	d="
M457.574371,216.051819 
	C465.889557,207.411652 474.598969,198.765060 483.610199,189.965485 
	C487.598480,191.119553 489.897186,196.347885 489.547546,201.924316 
	C489.406067,204.180634 490.001678,206.473419 490.047150,208.753891 
	C490.094757,211.145279 489.885895,213.541855 489.787292,215.936066 
	C489.713928,217.718323 489.551331,219.502213 489.586792,221.282211 
	C489.623077,223.104095 489.997772,224.924072 489.973724,226.741577 
	C489.803925,239.592438 489.540375,252.442093 489.389191,265.293121 
	C489.367889,267.103912 489.851654,268.915192 490.004486,270.734436 
	C490.578766,277.572266 491.496490,284.412262 491.519562,291.253998 
	C491.533661,295.431152 489.688080,299.593689 489.511292,303.797821 
	C489.302795,308.756775 489.971954,313.755157 490.309723,318.733093 
	C490.409790,320.208344 491.100311,321.768250 490.793732,323.125275 
	C489.240387,330.001770 486.834290,336.738983 485.869232,343.683716 
	C483.965088,357.386780 477.218445,369.224335 472.330353,381.783234 
	C472.152802,382.239410 472.142517,382.760742 472.023376,383.625549 
	C466.762695,389.065369 461.561859,394.161804 456.283905,399.177032 
	C454.865692,400.524628 453.212769,401.625244 451.336243,402.922485 
	C452.649994,396.779175 453.490662,390.186279 456.121552,384.408569 
	C460.485016,374.826050 461.141296,364.797607 462.049927,354.651520 
	C462.689484,347.509583 464.355072,340.441010 464.711090,333.297241 
	C465.084381,325.806976 464.436676,318.266174 464.244080,310.747253 
	C464.081299,304.392517 463.926697,298.037506 463.784546,291.682281 
	C463.773468,291.188080 463.970581,290.684967 463.934021,290.196228 
	C463.182922,280.165283 462.288422,270.142670 461.729950,260.101318 
	C461.586761,257.526550 462.873779,254.888855 462.842224,252.288116 
	C462.757050,245.269501 462.106262,238.254791 462.120239,231.239410 
	C462.125671,228.503174 463.553070,225.799759 463.899261,223.027267 
	C464.434631,218.739731 463.031555,215.747437 457.574371,216.051819 
z"/>
<path fill="#070707" opacity="1.000000" stroke="none" 
	d="
M411.395691,400.951599 
	C409.337585,400.809174 407.353973,399.794189 405.810211,400.254486 
	C402.542847,401.228638 399.540192,401.724396 395.984894,401.686310 
	C390.957428,401.632538 390.964142,399.273773 391.426971,395.524231 
	C392.849670,395.172638 394.069611,395.583405 394.802399,395.157013 
	C397.536285,393.566254 400.832611,392.217621 402.558411,389.805450 
	C404.630066,386.909943 402.647400,383.910431 400.196014,381.503387 
	C397.946259,379.294281 395.948517,376.828583 394.239990,374.309570 
	C396.633026,373.053528 400.290527,372.501740 398.163757,369.242554 
	C395.205750,364.709595 397.499664,363.197784 401.561340,362.015533 
	C404.486877,364.851501 406.713776,368.225983 409.841522,370.083832 
	C412.074188,371.410004 416.206543,371.854492 418.258759,370.628845 
	C421.391724,368.757782 425.639587,366.336426 424.052032,360.699982 
	C424.131226,356.573364 424.131226,352.819733 424.131226,349.066101 
	C420.414581,345.376526 417.482880,341.077576 414.988434,336.538330 
	C414.353394,335.382751 415.106476,333.464294 415.531189,332.013184 
	C417.782379,334.091736 419.542480,336.298553 421.734070,337.923309 
	C423.047363,338.896881 425.035187,338.960602 426.719818,339.433289 
	C428.965302,342.577454 430.818390,346.119476 433.528503,348.792603 
	C442.329193,357.472961 440.492035,367.814331 434.507446,376.806213 
	C432.087738,380.441833 428.456085,382.230042 423.905975,382.272491 
	C419.282318,382.315582 416.337494,384.203064 417.039246,389.575806 
	C417.666504,394.378510 414.933350,397.729401 411.395691,400.951599 
z"/>
<path fill="#114224" opacity="1.000000" stroke="none" 
	d="
M406.837708,300.010101 
	C409.328125,296.689148 411.459930,293.006500 414.376068,290.114868 
	C423.220917,281.344177 432.369354,272.879639 441.703247,264.159546 
	C442.249756,269.167999 440.145905,274.620789 444.178833,279.325439 
	C444.507233,279.708496 443.417694,282.057312 442.463867,282.648193 
	C439.627197,284.405518 438.719147,286.529297 439.597382,289.760498 
	C439.965515,291.114838 439.547668,292.687927 439.459167,294.159882 
	C439.350311,295.970062 438.440918,298.253265 439.214050,299.509369 
	C443.688263,306.778473 437.962006,313.673584 438.612366,320.809113 
	C438.751923,322.340332 435.305176,324.198395 432.891235,325.777466 
	C423.793915,317.102722 415.315826,308.556396 406.837708,300.010101 
z"/>
<path fill="#7AD7A3" opacity="1.000000" stroke="none" 
	d="
M406.427643,300.010925 
	C415.315826,308.556396 423.793915,317.102722 432.520142,325.858948 
	C435.252258,332.341827 429.402618,334.807434 426.830933,339.127319 
	C425.035187,338.960602 423.047363,338.896881 421.734070,337.923309 
	C419.542480,336.298553 417.782379,334.091736 415.379822,331.709656 
	C407.665070,324.411011 400.411102,317.532715 393.043549,310.373169 
	C391.746033,309.015442 390.562103,307.938995 389.242859,306.548950 
	C387.092865,304.433258 385.078156,302.631165 383.063416,300.829071 
	C380.076416,297.448792 377.089386,294.068481 373.971924,290.374939 
	C380.736694,285.751678 388.079956,288.198944 391.600342,296.016235 
	C393.379486,299.966980 396.704956,300.971222 400.608551,300.763184 
	C402.419769,300.666687 404.215057,300.271515 406.427643,300.010925 
z"/>
<path fill="#136334" opacity="1.000000" stroke="none" 
	d="
M444.320740,258.813599 
	C443.917389,253.899689 443.832397,248.837921 443.873413,243.403625 
	C444.212646,248.242630 444.425873,253.454193 444.320740,258.813599 
z"/>
<path fill="#136334" opacity="1.000000" stroke="none" 
	d="
M444.196991,232.668640 
	C444.149475,231.425247 444.302155,229.885239 444.734192,228.215454 
	C444.808105,229.514481 444.602631,230.943237 444.196991,232.668640 
z"/>
<path fill="#090A0B" opacity="1.000000" stroke="none" 
	d="
M392.653107,196.355316 
	C382.564453,184.155548 377.053986,170.696869 377.569122,154.099960 
	C382.485352,154.462418 386.972656,154.793243 391.419220,155.121063 
	C391.669312,181.790161 412.072479,200.526093 433.486389,202.618668 
	C433.486389,207.482407 433.486389,212.378998 433.486389,217.863388 
	C416.742035,216.268509 403.794189,208.430008 392.653107,196.355316 
z"/>
<path fill="#77D19F" opacity="1.000000" stroke="none" 
	d="
M257.487000,224.888138 
	C254.729630,228.113068 251.838898,231.549667 248.437119,234.369827 
	C244.431427,237.690628 240.019669,237.105576 236.498901,233.435989 
	C233.572678,230.386078 233.642105,225.305771 237.092026,221.753448 
	C241.003189,217.726181 245.242294,214.017426 249.649139,210.034058 
	C252.348801,214.874298 254.738159,219.850677 257.487000,224.888138 
z"/>
<path fill="#77D19F" opacity="1.000000" stroke="none" 
	d="
M251.087570,208.875275 
	C251.607056,207.983337 252.491241,207.075470 253.676376,206.055298 
	C253.135635,206.915115 252.293961,207.887222 251.087570,208.875275 
z"/>
<path fill="#78D7A3" opacity="1.000000" stroke="none" 
	d="
M393.839722,374.475922 
	C395.948517,376.828583 397.946259,379.294281 400.196014,381.503387 
	C402.647400,383.910431 404.630066,386.909943 402.558411,389.805450 
	C400.832611,392.217621 397.536285,393.566254 394.802399,395.157013 
	C394.069611,395.583405 392.849670,395.172638 391.425720,395.118042 
	C379.829407,384.203949 368.614807,373.364655 357.503418,362.420563 
	C342.472565,347.616089 327.509064,332.743042 312.550934,317.865021 
	C310.790466,316.113983 309.245850,314.145874 307.312134,312.105255 
	C304.613739,305.407318 304.991425,304.720947 315.367584,297.472839 
	C318.502838,300.544891 321.751404,303.727966 325.434631,307.358948 
	C336.088776,318.039001 346.220398,328.360962 356.550537,338.480225 
	C368.891541,350.569366 381.402435,362.485077 393.839722,374.475922 
z"/>
<path fill="#78D7A1" opacity="1.000000" stroke="none" 
	d="
M423.972839,361.072968 
	C425.639587,366.336426 421.391724,368.757782 418.258759,370.628845 
	C416.206543,371.854492 412.074188,371.410004 409.841522,370.083832 
	C406.713776,368.225983 404.486877,364.851501 401.400177,361.715637 
	C390.026367,350.673218 379.029175,340.139099 368.253937,329.382568 
	C356.436768,317.585876 344.824371,305.584045 333.122742,293.671631 
	C326.829590,285.545380 326.924347,285.682587 335.427551,279.810822 
	C338.431549,277.736481 340.448151,278.241058 342.743683,280.571808 
	C350.523560,288.471069 358.361908,296.312683 366.658386,304.597656 
	C369.407166,307.056458 371.675507,309.093903 374.060791,311.411285 
	C375.095490,312.470673 376.013184,313.250153 377.021881,314.356934 
	C392.732849,330.147125 408.352844,345.610046 423.972839,361.072968 
z"/>
<path fill="#78D5A1" opacity="1.000000" stroke="none" 
	d="
M298.411499,324.959747 
	C314.687103,340.798798 330.668030,356.484344 346.637299,372.181793 
	C353.268127,378.699799 360.176056,384.976562 366.315063,391.930603 
	C368.266357,394.140930 369.219757,398.402344 368.631042,401.322235 
	C368.141968,403.747833 365.032440,406.564209 362.499695,407.368561 
	C360.462677,408.015472 356.875854,406.607819 355.133118,404.918701 
	C337.627869,387.952484 320.384155,370.716858 303.015442,353.609192 
	C297.370667,348.049225 291.575073,342.642303 285.544098,337.040283 
	C284.564880,332.424438 284.173004,328.006500 288.330505,324.741455 
	C291.610870,322.165314 294.880127,320.763611 298.411499,324.959747 
z"/>
<path fill="#7BD3A2" opacity="1.000000" stroke="none" 
	d="
M144.062622,162.097137 
	C158.893799,147.773514 180.123123,153.391312 184.558624,172.821106 
	C186.618042,181.842392 182.850464,189.619705 175.816193,195.268051 
	C169.042648,200.707047 161.298737,202.443405 153.020096,198.288086 
	C137.078247,190.286316 133.241089,175.318771 144.062622,162.097137 
z"/>
<path fill="#78D5A0" opacity="1.000000" stroke="none" 
	d="
M275.561188,347.161621 
	C288.767090,360.028076 301.638885,372.754272 314.547821,385.442749 
	C319.762939,390.568848 324.776062,395.956085 330.402649,400.591370 
	C335.434753,404.736938 333.647705,414.011169 325.843109,416.204132 
	C324.505646,416.579926 322.292877,415.729889 321.176910,414.697571 
	C313.988800,408.048340 306.968719,401.216187 299.941101,394.395050 
	C292.196869,386.878387 284.419861,379.392365 276.818359,371.732971 
	C271.907532,366.784790 267.286346,361.549133 262.251343,356.275055 
	C261.982025,351.753082 266.827118,344.553070 270.537262,344.277435 
	C272.029724,344.166565 273.669373,346.037354 275.561188,347.161621 
z"/>
<path fill="#0A0709" opacity="1.000000" stroke="none" 
	d="
M332.988708,294.010529 
	C344.824371,305.584045 356.436768,317.585876 368.253937,329.382568 
	C379.029175,340.139099 390.026367,350.673218 401.086914,361.605286 
	C397.499664,363.197784 395.205750,364.709595 398.163757,369.242554 
	C400.290527,372.501740 396.633026,373.053528 394.239990,374.309570 
	C381.402435,362.485077 368.891541,350.569366 356.550537,338.480225 
	C346.220398,328.360962 336.088776,318.039001 325.732666,307.490234 
	C325.885681,306.781128 326.498108,306.298157 326.417236,306.009399 
	C324.728607,299.979858 328.351044,296.929321 332.988708,294.010529 
z"/>
<path fill="#0A0709" opacity="1.000000" stroke="none" 
	d="
M373.943817,311.131378 
	C371.675507,309.093903 369.407166,307.056458 366.970947,304.748840 
	C372.683289,297.141541 376.982269,304.517517 382.488708,306.557983 
	C382.699707,304.662262 382.868835,303.142975 383.050659,301.226379 
	C385.078156,302.631165 387.092865,304.433258 388.908691,306.637878 
	C388.124725,307.987793 387.539673,308.935150 386.954620,309.882446 
	C389.022125,310.139771 391.089600,310.397064 393.157104,310.654358 
	C400.411102,317.532715 407.665070,324.411011 415.070404,331.592834 
	C415.106476,333.464294 414.353394,335.382751 414.988434,336.538330 
	C417.482880,341.077576 420.414581,345.376526 424.131226,349.066101 
	C424.131226,352.819733 424.131226,356.573364 424.052032,360.699982 
	C408.352844,345.610046 392.732849,330.147125 377.276367,314.175812 
	C377.566559,312.727875 377.693176,311.788330 377.819794,310.848816 
	C376.527802,310.942993 375.235809,311.037170 373.943817,311.131378 
M390.912537,317.694458 
	C390.947540,317.892609 390.982544,318.090729 391.017578,318.288879 
	C391.064941,318.093781 391.112335,317.898712 390.912537,317.694458 
z"/>
<path fill="#75D9A3" opacity="1.000000" stroke="none" 
	d="
M305.871704,252.051102 
	C310.376984,246.677567 315.700165,245.394379 319.952332,248.375870 
	C324.673126,251.685959 325.876312,258.809052 322.584381,263.958588 
	C319.387604,268.959412 312.650543,269.622742 308.498260,265.345551 
	C303.038818,259.721893 302.736328,258.334351 305.871704,252.051102 
z"/>
<path fill="#78D5A1" opacity="1.000000" stroke="none" 
	d="
M171.011047,345.357666 
	C170.554352,338.058685 172.185593,332.159882 179.697906,329.192322 
	C181.073257,330.434326 181.886444,332.520996 183.172989,332.871826 
	C187.956009,334.176208 189.957794,337.065369 190.101410,341.875977 
	C190.141617,343.222748 191.422333,344.532471 192.499817,345.927856 
	C190.273865,352.566895 187.154755,354.965363 181.414780,354.801605 
	C175.760910,354.640350 173.262085,352.426666 171.011047,345.357666 
z"/>
<path fill="#78D5A1" opacity="1.000000" stroke="none" 
	d="
M190.699692,333.963867 
	C190.898880,333.887848 191.093506,333.935150 191.288116,333.982422 
	C191.090454,334.017334 190.892792,334.052246 190.699692,333.963867 
z"/>
<path fill="#070707" opacity="1.000000" stroke="none" 
	d="
M393.043549,310.373138 
	C391.089600,310.397064 389.022125,310.139771 386.954620,309.882446 
	C387.539673,308.935150 388.124725,307.987793 389.043945,306.951477 
	C390.562103,307.938995 391.746033,309.015442 393.043549,310.373138 
z"/>
<path fill="#070707" opacity="1.000000" stroke="none" 
	d="
M374.060791,311.411285 
	C375.235809,311.037170 376.527802,310.942993 377.819794,310.848816 
	C377.693176,311.788330 377.566559,312.727875 377.185425,313.848511 
	C376.013184,313.250153 375.095490,312.470673 374.060791,311.411285 
z"/>
<path fill="#070707" opacity="1.000000" stroke="none" 
	d="
M391.036133,317.699036 
	C391.112335,317.898712 391.064941,318.093781 391.017578,318.288879 
	C390.982544,318.090729 390.947540,317.892609 391.036133,317.699036 
z"/>
</svg>