<?xml version="1.0" encoding="UTF-8" standalone="no"?>
<!-- Created with Inkscape (http://www.inkscape.org/) -->

<svg
   width="210mm"
   height="297mm"
   viewBox="0 0 210 297"
   version="1.1"
   id="svg5"
   inkscape:version="1.1.2 (0a00cf5339, 2022-02-04)"
   sodipodi:docname="logo.svg"
   xmlns:inkscape="http://www.inkscape.org/namespaces/inkscape"
   xmlns:sodipodi="http://sodipodi.sourceforge.net/DTD/sodipodi-0.dtd"
   xmlns="http://www.w3.org/2000/svg"
   xmlns:svg="http://www.w3.org/2000/svg">
  <sodipodi:namedview
     id="namedview7"
     pagecolor="#ffffff"
     bordercolor="#666666"
     borderopacity="1.0"
     inkscape:pageshadow="2"
     inkscape:pageopacity="0.0"
     inkscape:pagecheckerboard="0"
     inkscape:document-units="mm"
     showgrid="false"
     inkscape:zoom="0.53165938"
     inkscape:cx="-140.12731"
     inkscape:cy="657.37578"
     inkscape:window-width="1920"
     inkscape:window-height="1016"
     inkscape:window-x="0"
     inkscape:window-y="27"
     inkscape:window-maximized="1"
     inkscape:current-layer="layer1" />
  <defs
     id="defs2" />
  <g
     inkscape:label="Layer 1"
     inkscape:groupmode="layer"
     id="layer1">
    <g
       id="g249"
       transform="translate(-0.32239425,0.69116235)">
      <path
         style="fill:#f0f0f4;stroke-width:0.352778"
         d="m 23.027029,268.3135 c 0,-3.20146 0.05348,-4.51115 0.118851,-2.91042 0.06537,1.60073 0.06537,4.2201 0,5.82083 -0.06537,1.60073 -0.118851,0.29104 -0.118851,-2.91041 z m 53.280595,-33.86667 c 0,-5.33577 0.04903,-7.51858 0.108966,-4.8507 0.05993,2.66788 0.05993,7.03351 0,9.70139 -0.05993,2.66788 -0.108966,0.48507 -0.108966,-4.85069 z"
         id="path295" />
      <path
         style="fill:#eeeef3;stroke-width:0.352778"
         d="m 23.68388,274.06625 c 0.343243,-0.0894 0.819493,-0.0836 1.058334,0.0131 0.238841,0.0966 -0.04199,0.16982 -0.624075,0.16263 -0.582083,-0.007 -0.777501,-0.0863 -0.434259,-0.1757 z m 12.700001,0 c 0.343242,-0.0894 0.819492,-0.0836 1.058333,0.0131 0.238841,0.0966 -0.04199,0.16982 -0.624074,0.16263 -0.582084,-0.007 -0.777501,-0.0863 -0.434259,-0.1757 z m 18.337732,10e-4 c 0.339548,-0.0887 0.895173,-0.0887 1.234722,0 0.339549,0.0887 0.06174,0.16133 -0.617361,0.16133 -0.679097,0 -0.95691,-0.0726 -0.617361,-0.16133 z m 13.758334,0 c 0.339548,-0.0887 0.895173,-0.0887 1.234722,0 0.339549,0.0887 0.06174,0.16133 -0.617361,0.16133 -0.679097,0 -0.95691,-0.0726 -0.617361,-0.16133 z m 50.270833,0.01 c 0.24254,-0.0979 0.63941,-0.0979 0.88195,0 0.24253,0.0979 0.0441,0.17794 -0.44098,0.17794 -0.48507,0 -0.6835,-0.0801 -0.44097,-0.17794 z M 83.120225,239.12466 c 1.212674,-0.0689 3.197049,-0.0689 4.409722,0 1.212674,0.0689 0.220487,0.12525 -2.204861,0.12525 -2.425347,0 -3.417535,-0.0564 -2.204861,-0.12525 z"
         id="path293" />
      <path
         style="fill:#dedee8;stroke-width:0.352778"
         d="m 15.563278,235.24446 c 1.11566,-0.07 2.941285,-0.07 4.056944,0 1.11566,0.07 0.202848,0.12729 -2.028472,0.12729 -2.231319,0 -3.144132,-0.0573 -2.028472,-0.12729 z"
         id="path291" />
      <path
         style="fill:#c6c6d6;stroke-width:0.352778"
         d="m 37.834761,269.901 c 7.05e-4,-2.32834 0.05779,-3.23493 0.126876,-2.01465 0.06908,1.22027 0.06852,3.12527 -0.0014,4.23333 -0.06978,1.10806 -0.126305,0.10965 -0.12561,-2.21868 z m 0.0081,-31.39723 c 3.52e-4,-3.10444 0.05442,-4.32722 0.11993,-2.71728 0.06552,1.60995 0.06515,4.14995 -7.06e-4,5.64445 -0.06596,1.4945 -0.119567,0.17728 -0.119119,-2.92717 z"
         id="path289" />
      <path
         style="fill:#bebdd1;stroke-width:0.352778"
         d="m 23.68388,262.42458 c 0.343243,-0.0894 0.819493,-0.0836 1.058334,0.0131 0.238841,0.0966 -0.04199,0.16981 -0.624075,0.16262 -0.582083,-0.007 -0.777501,-0.0862 -0.434259,-0.17569 z m 95.0669,0.0108 c 0.24254,-0.0979 0.63941,-0.0979 0.88195,0 0.24253,0.0979 0.0441,0.17794 -0.44098,0.17794 -0.48507,0 -0.6835,-0.0801 -0.44097,-0.17794 z m 79.55139,-12.70954 c 0.33955,-0.0887 0.89518,-0.0887 1.23473,0 0.33954,0.0887 0.0617,0.16133 -0.61736,0.16133 -0.6791,0 -0.95691,-0.0726 -0.61737,-0.16133 z M 155.8145,237.02806 c 0.25466,-0.1019 0.55893,-0.0894 0.67616,0.0278 0.11722,0.11722 -0.0911,0.2006 -0.46302,0.18528 -0.41097,-0.0169 -0.49456,-0.10052 -0.21314,-0.21313 z"
         id="path287" />
      <path
         style="fill:#b8b8cc;stroke-width:0.352778"
         d="m 161.30572,240.09127 c 0,-2.23132 0.0573,-3.14413 0.12729,-2.02847 0.07,1.11566 0.07,2.94128 0,4.05694 -0.07,1.11566 -0.12729,0.20285 -0.12729,-2.02847 z m 3.18439,-1.5875 c 3.6e-4,-3.10444 0.0544,-4.32722 0.11993,-2.71728 0.0655,1.60995 0.0651,4.14995 -7e-4,5.64445 -0.066,1.4945 -0.11957,0.17728 -0.11912,-2.92717 z m 2.10271,2.11667 c 0.001,-1.94028 0.0602,-2.68902 0.13165,-1.66387 0.0715,1.02515 0.0707,2.61265 -0.002,3.52778 -0.0723,0.91512 -0.1308,0.0764 -0.12989,-1.86391 z m -7.48148,-3.70417 c 0,-0.48507 0.0801,-0.68351 0.17794,-0.44097 0.0979,0.24253 0.0979,0.63941 0,0.88194 -0.0979,0.24254 -0.17794,0.0441 -0.17794,-0.44097 z m 7.38049,-3.38079 c 0.0169,-0.41096 0.10052,-0.49455 0.21313,-0.21313 0.10191,0.25466 0.0894,0.55893 -0.0278,0.67616 -0.11722,0.11722 -0.2006,-0.0911 -0.18529,-0.46303 z"
         id="path285" />
      <path
         style="fill:#aeadc6;stroke-width:0.352778"
         d="m 60.554271,268.75856 c 1.025152,-0.0715 2.612652,-0.0707 3.527778,0.002 0.915127,0.0724 0.07637,0.1309 -1.863908,0.12998 -1.940278,-10e-4 -2.689021,-0.0602 -1.66387,-0.13164 z m 24.873682,-10e-4 c 1.317755,-0.0681 3.381505,-0.0676 4.586111,10e-4 1.204602,0.0687 0.126439,0.12436 -2.395922,0.12374 -2.522361,-7e-4 -3.507948,-0.0568 -2.190189,-0.12486 z m 44.258937,7e-4 c 1.21268,-0.0689 3.19705,-0.0689 4.40973,0 1.21267,0.0689 0.22048,0.12525 -2.20487,0.12525 -2.42534,0 -3.41753,-0.0564 -2.20486,-0.12525 z m -68.799533,-2.11008 c 0.626262,-0.0779 1.737512,-0.0792 2.469445,-0.003 0.731929,0.0764 0.219533,0.14013 -1.138661,0.1417 -1.358195,10e-4 -1.957049,-0.0609 -1.330784,-0.13885 z"
         id="path283" />
      <path
         style="fill:#a9a9c2;stroke-width:0.352778"
         d="m 35.611269,273.39938 c 0.01693,-0.41097 0.100521,-0.49456 0.213135,-0.21314 0.101907,0.25466 0.08938,0.55893 -0.02784,0.67616 -0.117224,0.11722 -0.200603,-0.0911 -0.185286,-0.46302 z m 0.02785,-6.497 c 0,-0.48507 0.08007,-0.6835 0.177937,-0.44097 0.09786,0.24254 0.09786,0.63941 0,0.88195 -0.09786,0.24253 -0.177937,0.0441 -0.177937,-0.44098 z m 4.306478,-26.28194 c 0.0011,-1.94028 0.06016,-2.68902 0.131646,-1.66387 0.07149,1.02515 0.07074,2.61265 -0.0018,3.52778 -0.07241,0.91512 -0.130894,0.0764 -0.129977,-1.86391 z m -0.100993,-7.08496 c 0.01693,-0.41096 0.10052,-0.49455 0.213134,-0.21313 0.101907,0.25466 0.08938,0.55893 -0.02783,0.67616 -0.117225,0.11722 -0.200604,-0.0911 -0.185286,-0.46303 z"
         id="path281" />
      <path
         style="fill:#8e8eaf;stroke-width:0.352778"
         d="m 85.060503,266.99586 c 0.921632,-0.0727 2.429757,-0.0727 3.351389,0 0.921632,0.0727 0.167569,0.13213 -1.675695,0.13213 -1.843264,0 -2.597326,-0.0595 -1.675694,-0.13213 z m 44.097227,0 c 0.92163,-0.0727 2.42975,-0.0727 3.35139,0 0.92163,0.0727 0.16757,0.13213 -1.6757,0.13213 -1.84326,0 -2.59733,-0.0595 -1.67569,-0.13213 z M 54.732256,242.30098 c 0.927488,-0.0729 2.356238,-0.072 3.175,0.002 0.818766,0.074 0.05991,0.13364 -1.686338,0.13257 -1.74625,-0.001 -2.416147,-0.0616 -1.488662,-0.13452 z m 41.275002,0 c 0.927488,-0.0729 2.356238,-0.072 3.175,0.002 0.818762,0.074 0.05991,0.13364 -1.686338,0.13257 -1.74625,-0.001 -2.416147,-0.0616 -1.488662,-0.13452 z m -80.963823,-4.93792 c 0.829748,-0.0745 2.099748,-0.0735 2.822222,0.002 0.722475,0.0758 0.04359,0.13678 -1.508629,0.1355 -1.552222,-0.001 -2.14334,-0.0633 -1.313593,-0.13783 z"
         id="path279" />
      <path
         style="fill:#8e8dae;stroke-width:0.352778"
         d="m 13.427191,236.3871 c 0.0072,-0.58208 0.08625,-0.7775 0.175697,-0.43426 0.08944,0.34325 0.08356,0.8195 -0.01309,1.05834 -0.09664,0.23884 -0.169817,-0.042 -0.162627,-0.62408 z"
         id="path277" />
      <path
         style="fill:#7e7ea5;stroke-width:0.352778"
         d="m 25.143696,268.3135 c 0,-3.20146 0.05348,-4.51115 0.118851,-2.91042 0.06537,1.60073 0.06537,4.2201 0,5.82083 -0.06537,1.60073 -0.118851,0.29104 -0.118851,-2.91041 z m 49.047261,-33.86667 c 0,-5.33577 0.04903,-7.51858 0.108966,-4.8507 0.05993,2.66788 0.05993,7.03351 0,9.70139 -0.05993,2.66788 -0.108966,0.48507 -0.108966,-4.85069 z"
         id="path275" />
      <path
         style="fill:#7d7da4;stroke-width:0.352778"
         d="m 38.500548,232.79124 c 0.343242,-0.0894 0.819492,-0.0836 1.058333,0.0131 0.238841,0.0966 -0.04199,0.16982 -0.624074,0.16263 -0.582084,-0.007 -0.777502,-0.0863 -0.434259,-0.1757 z m 14.104398,-0.0171 c 1.309688,-0.0679 3.452813,-0.0679 4.7625,0 1.309688,0.0679 0.238125,0.12341 -2.38125,0.12341 -2.619375,0 -3.690938,-0.0555 -2.38125,-0.12341 z m 41.275002,0 c 1.309687,-0.0679 3.452812,-0.0679 4.7625,0 1.309687,0.0679 0.238125,0.12341 -2.38125,0.12341 -2.619375,0 -3.690938,-0.0555 -2.38125,-0.12341 z m 44.456712,0.0171 c 0.34324,-0.0894 0.81949,-0.0836 1.05834,0.0131 0.23884,0.0966 -0.042,0.16982 -0.62408,0.16263 -0.58208,-0.007 -0.7775,-0.0863 -0.43426,-0.1757 z m 8.81945,0 c 0.34324,-0.0894 0.81949,-0.0836 1.05833,0.0131 0.23884,0.0966 -0.042,0.16982 -0.62407,0.16263 -0.58209,-0.007 -0.7775,-0.0863 -0.43426,-0.1757 z m 17.99166,0 c 0.34325,-0.0894 0.8195,-0.0836 1.05834,0.0131 0.23884,0.0966 -0.042,0.16982 -0.62408,0.16263 -0.58208,-0.007 -0.7775,-0.0863 -0.43426,-0.1757 z m 32.10278,0 c 0.34325,-0.0894 0.8195,-0.0836 1.05834,0.0131 0.23884,0.0966 -0.042,0.16982 -0.62408,0.16263 -0.58208,-0.007 -0.7775,-0.0863 -0.43426,-0.1757 z m 8.46667,0 c 0.34324,-0.0894 0.81949,-0.0836 1.05833,0.0131 0.23885,0.0966 -0.042,0.16982 -0.62407,0.16263 -0.58208,-0.007 -0.7775,-0.0863 -0.43426,-0.1757 z"
         id="path273" />
      <path
         style="fill:#71719b;stroke-width:0.352778"
         d="m 68.772382,243.41326 c 0.01693,-0.41097 0.10052,-0.49456 0.213134,-0.21313 0.101907,0.25465 0.08938,0.55893 -0.02783,0.67615 -0.117225,0.11723 -0.200604,-0.0911 -0.185286,-0.46302 z m 71.009328,-2.79282 c 0.001,-1.94028 0.0602,-2.68902 0.13165,-1.66387 0.0715,1.02515 0.0707,2.61265 -0.002,3.52778 -0.0724,0.91512 -0.13089,0.0764 -0.12997,-1.86391 z m 8.8334,-2.11667 c 3.5e-4,-3.10444 0.0544,-4.32722 0.11993,-2.71728 0.0655,1.60995 0.0651,4.14995 -7e-4,5.64445 -0.066,1.4945 -0.11957,0.17728 -0.11912,-2.92717 z m -79.81488,-1.5875 c 0,-0.48507 0.08007,-0.68351 0.177938,-0.44097 0.09786,0.24253 0.09786,0.63941 0,0.88194 -0.09786,0.24254 -0.177938,0.0441 -0.177938,-0.44097 z"
         id="path271" />
      <path
         style="fill:#7f7f7f;stroke-width:0.352778"
         d="m 38.052862,189.118 v -18.16765 l 33.921525,-0.09 33.921533,-0.09 16.7026,-26.72329 16.7026,-26.7233 L 129.376,95.540189 C 123.91719,83.559177 119.07654,72.921868 118.61901,71.901719 l -0.83189,-1.854814 21.36972,0.09092 21.36972,0.09093 10.73553,22.673291 10.73553,22.673294 -27.64342,45.7656 -27.64342,45.76561 -44.328961,0.0896 -44.328957,0.0896 z"
         id="path269" />
      <path
         style="fill:#636192;stroke-width:0.352778"
         d="m 197.94305,271.13572 c 0,-0.6791 0.0726,-0.95691 0.16133,-0.61736 0.0887,0.33955 0.0887,0.89517 0,1.23472 -0.0887,0.33955 -0.16133,0.0617 -0.16133,-0.61736 z m 0,-11.64167 c 0,-0.6791 0.0726,-0.95691 0.16133,-0.61736 0.0887,0.33955 0.0887,0.89517 0,1.23472 -0.0887,0.33955 -0.16133,0.0617 -0.16133,-0.61736 z M 45.237263,240.62044 c 0.0011,-1.94028 0.06016,-2.68902 0.131646,-1.66387 0.07149,1.02515 0.07074,2.61265 -0.0018,3.52778 -0.07241,0.91512 -0.130895,0.0764 -0.129977,-1.86391 z m 126.647227,0 c 0.001,-1.94028 0.0602,-2.68902 0.13165,-1.66387 0.0715,1.02515 0.0707,2.61265 -0.002,3.52778 -0.0723,0.91512 -0.1308,0.0764 -0.12988,-1.86391 z M 50.103007,233.74127 c 0,-0.48507 0.08007,-0.68351 0.177938,-0.44097 0.09786,0.24253 0.09786,0.63941 0,0.88194 -0.09786,0.24254 -0.177938,0.0441 -0.177938,-0.44097 z m 41.275002,0 c 0,-0.48507 0.08007,-0.68351 0.177937,-0.44097 0.09786,0.24253 0.09786,0.63941 0,0.88194 -0.09786,0.24254 -0.177937,0.0441 -0.177937,-0.44097 z"
         id="path267" />
      <path
         style="fill:#545487;stroke-width:0.352778"
         d="m 120.02782,270.43016 c 0,-2.03729 0.0583,-2.87073 0.12957,-1.85208 0.0713,1.01864 0.0713,2.68552 0,3.70417 -0.0713,1.01864 -0.12957,0.1852 -0.12957,-1.85209 z m -0.10266,-7.26134 c 0.0169,-0.41097 0.10052,-0.49456 0.21314,-0.21314 0.1019,0.25466 0.0894,0.55894 -0.0278,0.67616 -0.11722,0.11723 -0.2006,-0.0911 -0.18528,-0.46302 z"
         id="path265" />
      <path
         style="fill:#4e4e82;stroke-width:0.352778"
         d="m 82.591058,237.36252 c 0.921632,-0.0727 2.429757,-0.0727 3.351389,0 0.921632,0.0727 0.16757,0.13213 -1.675694,0.13213 -1.843264,0 -2.597327,-0.0595 -1.675695,-0.13213 z m -30.681024,-2.82266 c 0.927488,-0.0729 2.356238,-0.072 3.175,0.002 0.818765,0.074 0.05991,0.13364 -1.686338,0.13256 -1.74625,-0.001 -2.416147,-0.0616 -1.488662,-0.13451 z m 41.275001,0 c 0.927488,-0.0729 2.356239,-0.072 3.175,0.002 0.818766,0.074 0.05991,0.13364 -1.686337,0.13256 -1.74625,-0.001 -2.416147,-0.0616 -1.488663,-0.13451 z"
         id="path263" />
      <path
         style="fill:#46457d;stroke-width:0.352778"
         d="m 19.084706,271.13572 c 0,-0.6791 0.0726,-0.95691 0.161336,-0.61736 0.08873,0.33955 0.08873,0.89517 0,1.23472 -0.08873,0.33955 -0.161336,0.0617 -0.161336,-0.61736 z m 166.809904,-5.85023 c 0.0169,-0.41097 0.10052,-0.49456 0.21313,-0.21314 0.10191,0.25466 0.0894,0.55893 -0.0278,0.67616 -0.11723,0.11722 -0.2006,-0.0911 -0.18529,-0.46302 z M 19.084706,259.49405 c 0,-0.6791 0.0726,-0.95691 0.161336,-0.61736 0.08873,0.33955 0.08873,0.89517 0,1.23472 -0.08873,0.33955 -0.161336,0.0617 -0.161336,-0.61736 z"
         id="path261" />
      <path
         style="fill:#3e3d77;stroke-width:0.352778"
         d="m 38.500548,244.08013 c 0.343242,-0.0894 0.819492,-0.0836 1.058333,0.0131 0.238841,0.0966 -0.04199,0.16982 -0.624074,0.16263 -0.582084,-0.007 -0.777502,-0.0863 -0.434259,-0.1757 z m 7.225231,0.0108 c 0.242535,-0.0979 0.63941,-0.0979 0.881945,0 0.242534,0.0979 0.0441,0.17794 -0.440973,0.17794 -0.485069,0 -0.683507,-0.0801 -0.440972,-0.17794 z m 6.158177,-0.0276 c 1.3012,-0.0677 3.5237,-0.0681 4.938889,-0.001 1.41519,0.0671 0.350573,0.12251 -2.365816,0.12306 -2.716389,7.1e-4 -3.874272,-0.0544 -2.573073,-0.12206 z m 17.661037,0.0168 c 0.343243,-0.0894 0.819493,-0.0836 1.058334,0.0131 0.238841,0.0966 -0.04199,0.16982 -0.624075,0.16263 -0.582083,-0.007 -0.777501,-0.0863 -0.434259,-0.1757 z m 5.291667,0 c 0.343242,-0.0894 0.819492,-0.0836 1.058334,0.0131 0.238841,0.0966 -0.04199,0.16982 -0.624075,0.16263 -0.582083,-0.007 -0.777501,-0.0863 -0.434259,-0.1757 z m 18.322298,-0.0168 c 1.3012,-0.0677 3.5237,-0.0681 4.938889,-0.001 1.415189,0.0671 0.350573,0.12251 -2.365816,0.12306 -2.716389,7.1e-4 -3.874273,-0.0544 -2.573073,-0.12206 z m 45.177702,0.0168 c 0.34324,-0.0894 0.81949,-0.0836 1.05834,0.0131 0.23884,0.0966 -0.042,0.16982 -0.62408,0.16263 -0.58208,-0.007 -0.7775,-0.0863 -0.43426,-0.1757 z m 8.81945,0 c 0.34324,-0.0894 0.81949,-0.0836 1.05833,0.0131 0.23884,0.0966 -0.042,0.16982 -0.62407,0.16263 -0.58209,-0.007 -0.7775,-0.0863 -0.43426,-0.1757 z m 12.7,0 c 0.34324,-0.0894 0.81949,-0.0836 1.05833,0.0131 0.23884,0.0966 -0.042,0.16982 -0.62407,0.16263 -0.58209,-0.007 -0.7775,-0.0863 -0.43426,-0.1757 z m 5.29166,0 c 0.34325,-0.0894 0.8195,-0.0836 1.05834,0.0131 0.23884,0.0966 -0.042,0.16982 -0.62408,0.16263 -0.58208,-0.007 -0.7775,-0.0863 -0.43426,-0.1757 z m 7.22524,0.0108 c 0.24253,-0.0979 0.63941,-0.0979 0.88194,0 0.24254,0.0979 0.0441,0.17794 -0.44097,0.17794 -0.48507,0 -0.68351,-0.0801 -0.44097,-0.17794 z"
         id="path259" />
      <path
         style="fill:#2a2869;stroke-width:0.352778"
         d="m 118.27703,268.3135 c 0,-3.20146 0.0535,-4.51115 0.11885,-2.91042 0.0654,1.60073 0.0654,4.2201 0,5.82083 -0.0654,1.60073 -0.11885,0.29104 -0.11885,-2.91041 z m -59.0018,-25.04723 c 0,-0.48507 0.08007,-0.68351 0.177937,-0.44097 0.09786,0.24253 0.09786,0.63941 0,0.88194 -0.09786,0.24254 -0.177937,0.0441 -0.177937,-0.44097 z m 41.275,0 c 0,-0.48507 0.0801,-0.68351 0.17794,-0.44097 0.0979,0.24253 0.0979,0.63941 0,0.88194 -0.0979,0.24254 -0.17794,0.0441 -0.17794,-0.44097 z"
         id="path257" />
      <path
         style="fill:#00009f;stroke-width:0.352778"
         d="M 41.796452,136.73461 30.289073,117.33906 59.996512,69.883213 89.703955,22.427362 h 45.259175 45.25918 v 17.286113 17.286112 h -29.75309 -29.7531 l -0.41112,0.902297 c -0.22611,0.496263 -8.90228,13.510642 -19.28038,28.920837 l -18.869274,28.018539 6.923546,14.20625 c 3.807954,7.81344 8.322572,17.10344 10.032489,20.64445 l 3.108939,6.43819 H 77.762074 53.303831 Z"
         id="path255" />
      <path
         style="fill:#1c1b5f;stroke-width:0.352778"
         d="m 47.002821,240.44405 c 0,-2.03729 0.05831,-2.87073 0.129568,-1.85208 0.07126,1.01864 0.07126,2.68552 0,3.70416 -0.07126,1.01865 -0.129568,0.18521 -0.129568,-1.85208 z m 126.645559,0.17639 c 0.001,-1.94028 0.0602,-2.68902 0.13165,-1.66387 0.0715,1.02515 0.0707,2.61265 -0.002,3.52778 -0.0724,0.91512 -0.13089,0.0764 -0.12998,-1.86391 z"
         id="path253" />
      <path
         style="fill:#0d0c55;stroke-width:0.352778"
         d="m 149.03092,277.53336 c -0.20704,-0.335 1.39223,-5.25644 1.87879,-5.7816 0.13549,-0.14625 0.50175,-0.0669 0.8139,0.17639 0.51265,0.39951 0.45374,0.69734 -0.60903,3.07903 -1.15596,2.59053 -1.66355,3.20592 -2.08366,2.52618 z M 42.294108,273.79109 c -0.672662,-0.81051 -0.291239,-1.77343 0.702476,-1.77343 0.632873,0 0.90763,0.21438 0.986713,0.76988 0.144141,1.01248 -1.078795,1.73903 -1.689189,1.00355 z m 136.311762,0.005 c -0.541,-0.40181 -0.5982,-0.63041 -0.28539,-1.14055 0.54145,-0.88302 1.69933,-0.82078 1.83066,0.0984 0.15632,1.09409 -0.69883,1.67081 -1.54527,1.04215 z m 23.85551,0.002 c -0.67633,-0.81478 -0.30127,-1.78069 0.69149,-1.78069 0.55914,0 0.91613,0.22771 0.99444,0.63431 0.12215,0.63427 -0.49204,1.65875 -0.99444,1.65875 -0.14651,0 -0.45768,-0.2305 -0.69149,-0.51222 z M 10.536194,273.39634 C 8.9323113,272.7027 7.1392405,270.96788 6.19423,269.19544 5.1456791,267.2288 5.143439,263.41042 6.18968,261.4297 c 0.9913621,-1.87682 2.4438541,-3.30317 4.170126,-4.09506 3.203833,-1.46969 8.643056,-0.34314 8.643056,1.79012 v 0.97888 l -1.647288,-0.83396 c -1.906983,-0.96544 -4.891289,-1.12235 -6.395925,-0.33629 -2.4075325,1.25775 -3.7258102,3.51748 -3.7228257,6.38149 0.00317,2.91284 1.3680546,5.18579 3.8935417,6.48329 1.35044,0.6938 4.415504,0.47811 6.225209,-0.43808 l 1.647288,-0.83397 v 0.97889 c 0,0.80493 -0.270556,1.10985 -1.52249,1.7159 -1.83032,0.88605 -5.109485,0.96889 -6.944178,0.17543 z m 12.700001,-5.08284 v -5.64445 h 0.881944 0.881945 v 5.64445 5.64444 h -0.881945 -0.881944 z m 6.460674,4.80148 c -3.414501,-2.87311 -0.01118,-7.10444 4.598391,-5.71716 l 1.640935,0.49384 v -1.50977 c 0,-0.89412 -0.210287,-1.68431 -0.515694,-1.93777 -0.541722,-0.44959 -4.116521,-0.36762 -5.171422,0.11859 -0.373229,0.17202 -0.644695,0.0737 -0.781611,-0.2831 -0.518781,-1.35193 4.327694,-2.18856 6.417564,-1.10785 1.499221,0.77528 1.815052,1.91841 1.815052,6.56944 v 4.21674 H 36.81814 c -0.720884,0 -0.881945,-0.17229 -0.881945,-0.94344 v -0.94344 l -0.870433,0.81773 c -0.578517,0.54349 -1.441641,0.87262 -2.573666,0.98139 -1.455367,0.13984 -1.862148,0.0299 -2.795227,-0.7552 z m 5.373416,-1.43406 c 1.144845,-1.14484 1.183901,-2.84714 0.07216,-3.14507 -1.453896,-0.38963 -3.625864,-0.22901 -4.41942,0.32681 -0.937214,0.65646 -1.033515,2.11824 -0.200208,3.03903 0.905005,1.00002 3.450244,0.87646 4.547468,-0.22077 z m 19.563133,2.01934 c 0,-0.14172 1.696502,-4.10823 3.770003,-8.81447 l 3.769998,-8.5568 3.814724,8.65435 c 2.098097,4.75989 3.81472,8.73695 3.81472,8.83791 0,0.10095 -0.409102,0.13332 -0.909119,0.0719 -0.762606,-0.0936 -1.081546,-0.52568 -1.979034,-2.68081 l -1.069915,-2.56918 -3.699132,0.0997 -3.699133,0.0997 -1.073863,2.55764 c -0.902423,2.14932 -1.2068,2.55764 -1.906556,2.55764 -0.457979,0 -0.832693,-0.11595 -0.832693,-0.25768 z m 10.230556,-7.10757 c 0,-0.17033 -0.225206,-0.84502 -0.500461,-1.49931 -1.690045,-4.01728 -2.018245,-4.63252 -2.312289,-4.33458 -0.175182,0.17752 -0.877958,1.63244 -1.561726,3.23317 l -1.243207,2.91041 h 2.808842 c 1.544863,0 2.808841,-0.13936 2.808841,-0.30969 z m 8.190238,6.65636 c -1.332643,-0.81251 -1.800931,-1.70157 -1.118436,-2.12337 0.30384,-0.18779 0.834196,0.0133 1.489583,0.56477 1.732657,1.45794 4.138616,1.02367 4.138616,-0.747 0,-0.93372 -0.80608,-1.677 -2.641018,-2.43527 -2.04609,-0.84552 -3.003427,-1.87482 -3.003427,-3.22918 0,-1.54708 1.349548,-2.61041 3.31077,-2.60863 1.419684,0.001 3.744786,1.069 3.744786,1.71964 0,0.61336 -1.12086,0.7447 -1.871049,0.21924 -1.041534,-0.72951 -3.3776,-0.6989 -3.664222,0.048 -0.355183,0.92559 0.330578,1.63931 2.744333,2.85623 1.243976,0.62716 2.460209,1.41156 2.702743,1.74312 0.76629,1.04755 0.523667,2.55622 -0.590225,3.67011 -1.275913,1.27592 -3.458316,1.41009 -5.242454,0.32231 z m 11.565319,0.45975 c -1.842008,-0.67336 -3.175001,-2.93852 -3.175001,-5.3953 0,-2.00926 0.535475,-3.27826 1.935181,-4.58612 0.815643,-0.76211 1.270508,-0.88194 3.347872,-0.88194 1.907977,0 2.564655,0.1454 3.182694,0.70472 0.998964,0.90405 1.640914,2.15666 1.950215,3.80539 l 0.245894,1.31072 h -4.632093 -4.632092 l 0.217117,0.97014 c 0.119415,0.53358 0.680568,1.4067 1.247009,1.94028 1.365377,1.28616 3.240892,1.31056 5.074839,0.066 0.921777,-0.62553 1.445292,-0.79116 1.69895,-0.5375 0.444726,0.44473 -0.530909,1.6288 -1.944317,2.3597 -0.938431,0.48528 -3.480425,0.62257 -4.516268,0.24391 z m 5.291666,-7.22465 c 0,-0.42406 -0.345171,-1.13843 -0.767048,-1.5875 -1.114545,-1.18638 -3.860793,-1.15961 -5.069819,0.0494 -0.47625,0.47625 -0.865911,1.19063 -0.865911,1.5875 0,0.6763 0.210362,0.72159 3.351389,0.72159 3.211047,0 3.351389,-0.0323 3.351389,-0.77101 z m 5.771131,6.79551 c -1.417807,-0.86453 -1.702357,-1.3442 -1.17463,-1.98007 0.363132,-0.43755 0.573673,-0.38476 1.468547,0.36823 1.008031,0.8482 2.441346,1.11237 3.607488,0.66488 0.353822,-0.13578 0.558017,-0.64281 0.558017,-1.38559 0,-1.09387 -0.14985,-1.24225 -2.262689,-2.24052 -3.426008,-1.61871 -4.276601,-3.41087 -2.474277,-5.2132 0.804358,-0.80435 1.124433,-0.88948 2.816758,-0.74914 1.742443,0.1445 3.331318,0.958 3.331318,1.70562 0,0.56216 -1.19273,0.67635 -1.754486,0.16796 -0.329124,-0.29785 -1.239866,-0.53767 -2.041875,-0.53767 -1.135757,0 -1.495799,0.15137 -1.670688,0.7024 -0.322482,1.01605 -0.04279,1.29553 2.657337,2.65529 1.336202,0.6729 2.594392,1.53164 2.795972,1.9083 0.65265,1.21948 0.41472,2.50121 -0.66468,3.58059 -1.259955,1.25996 -3.459408,1.40946 -5.192112,0.35292 z m 11.112292,-0.0828 c -1.63423,-0.94763 -2.77231,-2.95016 -2.77231,-4.87804 0,-5.74769 6.88084,-7.78134 10.37451,-3.06622 0.55131,0.74406 0.73799,1.51835 0.73799,3.06094 0,2.31413 -0.63906,3.48733 -2.64225,4.85069 -1.52374,1.03705 -3.94189,1.0509 -5.69794,0.0326 z m 5.55325,-1.84944 c 1.05652,-1.05652 1.19944,-1.41802 1.19944,-3.03388 0,-1.61586 -0.14292,-1.97737 -1.19944,-3.03389 -0.91166,-0.91166 -1.49866,-1.19945 -2.44648,-1.19945 -2.81657,0 -4.25088,1.41938 -4.25088,4.20665 0,2.66667 1.5172,4.22338 4.13972,4.24752 1.08339,0.01 1.60087,-0.23018 2.55764,-1.18695 z m 6.13833,-3.03388 c 0,-5.40926 0.0294,-5.64445 0.70555,-5.64445 0.47861,0 0.70556,0.23519 0.70556,0.73116 v 0.73116 l 0.92952,-0.73116 c 0.93254,-0.73353 2.41763,-0.94749 3.18555,-0.45894 0.79733,0.50726 -0.33006,1.33297 -1.80756,1.32388 -1.97245,-0.0121 -2.29585,0.79191 -2.30231,5.72404 -0.005,3.73183 -0.0473,3.96875 -0.71076,3.96875 -0.67615,0 -0.70555,-0.23519 -0.70555,-5.64444 z m 9.48897,4.84366 c -1.52753,-1.02046 -2.43232,-2.82224 -2.43232,-4.84366 0,-3.37953 2.20971,-5.64445 5.50686,-5.64445 1.59233,0 2.06299,0.16433 3.11425,1.08736 1.14667,1.00678 1.95433,2.77636 1.95916,4.2925 0.002,0.55514 -0.44245,0.61736 -4.40775,0.61736 h -4.40973 v 0.90908 c 0,0.53441 0.42501,1.33409 1.0312,1.94028 1.35815,1.35815 3.25825,1.40511 5.14155,0.12706 0.88436,-0.60014 1.45042,-0.78603 1.68357,-0.55288 0.57776,0.57776 0.0259,1.38091 -1.47507,2.14664 -1.90754,0.97315 -4.1836,0.94155 -5.71172,-0.0793 z m 6.24738,-6.46002 c -0.11777,-0.30691 -0.21413,-0.70378 -0.21413,-0.88194 0,-0.17816 -0.3175,-0.64143 -0.70555,-1.02948 -1.07833,-1.07832 -3.98343,-0.98754 -5.13132,0.16035 -0.47625,0.47625 -0.86591,1.19063 -0.86591,1.5875 0,0.67934 0.20878,0.72159 3.56553,0.72159 3.10635,0 3.53794,-0.0719 3.35138,-0.55802 z m 5.7734,6.65963 c -1.42017,-0.97881 -1.78724,-1.61425 -1.24928,-2.16264 0.38394,-0.39139 0.61549,-0.31705 1.37351,0.44097 1.18565,1.18566 3.53581,1.2955 4.12593,0.19285 0.66666,-1.24566 0.055,-2.08877 -2.34788,-3.23659 -3.38082,-1.61492 -4.19354,-3.30065 -2.43779,-5.0564 1.15096,-1.15096 3.87937,-1.22085 5.26013,-0.13475 0.51123,0.40214 0.92952,0.88337 0.92952,1.0694 0,0.64996 -1.09007,0.74952 -1.74242,0.15915 -0.4385,-0.39684 -1.11042,-0.55812 -2.01534,-0.48376 -1.17982,0.0969 -1.37194,0.23652 -1.46765,1.06621 -0.0995,0.8629 0.12799,1.07457 2.36751,2.20237 2.633,1.32596 3.21068,1.98585 3.21068,3.66758 0,2.33315 -3.82245,3.7812 -6.00692,2.27561 z m 26.47136,-0.0533 c -0.67121,-0.35997 -1.68964,-1.23428 -2.26318,-1.94291 -1.01503,-1.25411 -1.02466,-1.30212 -0.36162,-1.80307 0.61414,-0.46399 0.73328,-0.43776 1.21036,0.26653 1.96741,2.90438 5.26492,3.50933 6.84357,1.2555 1.47217,-2.10183 0.40464,-3.79639 -3.53194,-5.6065 -4.0441,-1.85954 -5.17768,-3.74648 -3.82367,-6.36484 1.60402,-3.10183 6.69269,-3.22452 8.80258,-0.21222 0.67329,0.96126 0.66448,1.17616 -0.0596,1.45402 -0.38822,0.14897 -0.98484,-0.15833 -1.75315,-0.903 -0.95787,-0.92841 -1.44508,-1.12882 -2.74409,-1.12882 -1.77416,0 -2.50418,0.44581 -2.82534,1.72542 -0.39705,1.58199 0.55907,2.65865 3.72305,4.19244 2.09495,1.01557 3.18401,1.78006 3.74706,2.63037 2.73545,4.131 -2.40475,8.88225 -6.96403,6.43708 z m 22.33858,-0.22157 c -6.29905,-3.18622 -6.24434,-12.45938 0.0918,-15.55936 1.63359,-0.79924 2.24961,-0.911 4.36322,-0.79157 2.82787,0.15979 4.35413,1.01316 4.5358,2.53609 l 0.11188,0.93792 -1.66373,-0.88462 c -4.93057,-2.6216 -10.20823,0.48207 -10.1935,5.99455 0.0148,5.53565 5.25777,8.61891 10.1935,5.99456 l 1.66373,-0.88462 -0.11188,0.93792 c -0.18556,1.55553 -1.71487,2.38968 -4.6277,2.52417 -2.17869,0.10059 -2.79895,-0.0139 -4.36311,-0.80504 z M 23.249749,259.58224 c 0.0074,-0.14552 0.686015,-1.0274 1.507909,-1.95974 1.085318,-1.23117 1.660984,-1.63123 2.103113,-1.46157 0.908456,0.34861 0.772894,0.61483 -1.130229,2.21956 -1.637866,1.38108 -2.511665,1.80436 -2.480793,1.20175 z M 198.21398,249.45753 c 0,-0.0873 0.63832,-1.63047 1.41849,-3.42923 1.61328,-3.71962 1.69434,-2.99706 -1.01236,-9.02384 l -1.78242,-3.96875 0.95273,0.004 c 0.88219,0.004 1.0677,0.29107 2.50566,3.88056 0.85412,2.13207 1.64787,3.87548 1.76389,3.87425 0.11603,-0.001 0.90006,-1.74749 1.74231,-3.88056 1.37199,-3.47472 1.62196,-3.87832 2.40207,-3.87832 0.47889,0 0.80665,0.11907 0.72836,0.26459 -0.0783,0.14552 -1.71352,3.87614 -3.63383,8.29028 -3.07395,7.06596 -3.58674,8.0257 -4.28818,8.0257 -0.4382,0 -0.79672,-0.0714 -0.79672,-0.15874 z M 10.447284,243.82128 c -3.4747839,-1.24003 -5.6210628,-4.42645 -5.6024538,-8.31755 0.023636,-4.94152 3.6140886,-8.5572 8.5135868,-8.57342 3.289871,-0.0109 7.461638,2.47291 6.367589,3.79115 -0.382047,0.46034 -0.605292,0.39557 -1.727475,-0.50123 -2.935665,-2.34606 -7.114498,-2.09514 -9.6447541,0.57913 -1.2525693,1.32386 -1.6997893,2.59826 -1.6903913,4.81696 0.018909,4.45971 3.0888377,7.27898 7.4679924,6.8582 1.945396,-0.18693 3.242507,-0.9869 4.430511,-2.73244 1.45947,-2.14441 1.18992,-2.47303 -2.028472,-2.47303 -2.775187,0 -2.822223,-0.0147 -2.822223,-0.88195 v -0.88194 h 3.896541 3.896543 l -0.232727,1.32292 c -0.991606,5.63667 -5.842837,8.7709 -10.824267,6.9932 z m 16.459401,-0.16832 c -3.619574,-1.64383 -4.281074,-6.55794 -1.251246,-9.2952 3.695743,-3.33888 9.234283,-0.8739 9.310138,4.14357 0.03263,2.1588 -1.055462,4.03771 -2.90455,5.01553 -1.841328,0.97372 -3.229282,1.01037 -5.154342,0.1361 z m 4.27463,-1.29589 c 2.518774,-1.19524 3.012624,-5.04386 0.890542,-6.94011 -1.40891,-1.25896 -4.035669,-1.37411 -5.262976,-0.2307 -2.229379,2.07698 -1.799653,6.09254 0.77167,7.21089 1.472939,0.64062 2.18294,0.63272 3.600764,-0.0401 z m 32.044712,1.61773 c -1.709953,-0.69005 -2.33087,-2.71291 -1.390759,-4.53088 0.909246,-1.75829 3.629741,-2.48686 6.291901,-1.68503 0.944947,0.28461 0.970139,0.25569 0.970139,-1.11396 0,-0.78002 -0.221612,-1.59008 -0.497689,-1.8192 -0.865586,-0.71838 -2.809755,-0.83321 -4.2089,-0.24861 -1.199815,0.50131 -1.34119,0.50122 -1.533923,-0.001 -0.582405,-1.51773 4.044791,-2.33091 6.358572,-1.11746 1.179682,0.61868 1.645829,2.49403 1.645829,6.62131 v 3.89192 h -0.881945 c -0.646758,0 -0.881944,-0.18815 -0.881944,-0.70556 0,-0.38805 -0.15875,-0.70555 -0.352778,-0.70555 -0.194028,0 -0.352778,0.14066 -0.352778,0.31258 0,0.4911 -2.293479,1.45367 -3.404704,1.42894 -0.552761,-0.0123 -1.345219,-0.15965 -1.761021,-0.32744 z m 5.231494,-2.11326 c 0.793527,-0.97996 0.84027,-2.67619 0.08177,-2.96725 -1.154581,-0.44305 -4.322173,-0.22243 -4.884836,0.34024 -0.760444,0.76044 -0.72105,2.83572 0.063,3.31846 1.047154,0.64474 4.007814,0.21286 4.740075,-0.69145 z m 13.484885,1.79598 c -3.578755,-2.1823 -3.891256,-7.31006 -0.598555,-9.82153 1.611006,-1.22877 4.490682,-1.34079 6.000712,-0.23343 1.235738,0.90621 2.212597,2.79692 2.21331,4.28385 l 5.47e-4,1.14653 h -4.447967 -4.447967 l 0.240785,0.97014 c 0.742787,2.99274 3.911677,3.64115 6.969746,1.42613 0.468383,-0.33926 0.70347,-0.34432 1.02574,-0.0221 0.577695,0.5777 -0.177899,1.43748 -1.986171,2.26005 -1.82064,0.82818 -3.601836,0.82471 -4.97018,-0.01 z m 5.852125,-6.76839 c 0,-1.005 -1.869342,-2.79508 -2.918831,-2.79508 -1.661781,0 -3.007561,0.7257 -3.579019,1.92996 -0.306736,0.6464 -0.557706,1.27035 -0.557706,1.38655 0,0.1162 1.5875,0.21127 3.527778,0.21127 3.336145,0 3.527778,-0.0398 3.527778,-0.7327 z m 25.863059,6.7037 c -0.81247,-0.40217 -1.90969,-1.29822 -2.43828,-1.99123 -0.89813,-1.1775 -0.92063,-1.28957 -0.34359,-1.71151 0.53778,-0.39323 0.81049,-0.25004 2.11322,1.10957 1.35503,1.41418 1.65232,1.56106 3.15977,1.56106 1.29635,0 1.85532,-0.19132 2.52991,-0.86592 1.80635,-1.80634 0.59127,-4.48644 -2.56046,-5.64758 -3.81526,-1.40559 -5.35393,-3.16936 -4.8957,-5.61192 0.69847,-3.72316 5.64915,-4.72918 8.62554,-1.75279 1.15085,1.15086 1.18479,1.25168 0.61115,1.81572 -0.57099,0.56145 -0.64296,0.55431 -1.20196,-0.1192 -1.73525,-2.09071 -4.07411,-2.53893 -5.54953,-1.06352 -1.75039,1.7504 -0.73277,3.38576 3.36743,5.41157 2.92901,1.44715 4.23333,2.93687 4.23333,4.83502 0,2.30641 -2.63692,4.76104 -5.11528,4.76168 -0.58208,1.5e-4 -1.72308,-0.32878 -2.53555,-0.73095 z m 13.64823,0.33545 c -2.17981,-0.86921 -3.52795,-2.98286 -3.52795,-5.53121 0,-2.21509 1.05024,-3.84783 3.17784,-4.94035 2.77138,-1.42311 6.00441,-0.31663 7.38046,2.5259 0.93827,1.9382 0.92256,3.22603 -0.0632,5.17898 -1.30095,2.57749 -4.37766,3.79925 -6.96718,2.76668 z m 3.69189,-1.51616 c 2.70747,-1.13126 3.1527,-5.40562 0.76456,-7.34009 -0.9572,-0.77536 -3.67138,-0.81816 -4.73293,-0.0746 -0.99592,0.69757 -1.84036,2.31441 -1.84036,3.52372 0,1.48644 1.01287,3.22304 2.2299,3.82323 1.398,0.68943 2.06091,0.70199 3.57883,0.0678 z m 22.54777,1.25867 c -2.36692,-1.48598 -2.15624,-4.82938 0.37086,-5.88527 1.56002,-0.65182 2.71792,-0.65326 4.26869,-0.005 l 1.22339,0.51116 v -1.54949 c 0,-1.20129 -0.17619,-1.67291 -0.78405,-2.09867 -0.97649,-0.68396 -2.40354,-0.70078 -3.9688,-0.0468 -1.01324,0.42336 -1.26514,0.42682 -1.60113,0.022 -0.60346,-0.72712 1.53686,-1.71334 3.74289,-1.72467 2.05368,-0.0105 3.51966,0.76046 4.03795,2.12366 0.18537,0.48755 0.33703,2.70175 0.33703,4.92044 v 4.03398 h -0.88194 c -0.6511,0 -0.88195,-0.18745 -0.88195,-0.71612 0,-0.71348 -0.004,-0.71338 -1.00418,0.0263 -1.45538,1.076 -3.50313,1.23986 -4.85876,0.38877 z m 4.99703,-1.62321 c 0.99986,-0.99986 1.17754,-2.81957 0.30789,-3.15329 -0.30691,-0.11777 -1.36597,-0.21413 -2.35347,-0.21413 -2.02968,0 -3.08573,0.68275 -3.08573,1.99495 0,2.17153 3.41804,3.08575 5.13131,1.37247 z m 21.15064,1.49658 c -1.57527,-0.90418 -2.99862,-3.27932 -2.99862,-5.00376 0,-1.56773 1.31117,-3.97426 2.59896,-4.77016 1.86436,-1.15224 3.67789,-1.25539 5.51209,-0.31352 2.16757,1.11305 3.17784,2.71757 3.17784,5.04705 0,4.39818 -4.56925,7.17624 -8.29027,5.04039 z m 5.49035,-1.88675 c 1.78245,-1.7077 1.64512,-4.99166 -0.2718,-6.49951 -0.99544,-0.78301 -3.54403,-0.97127 -4.70893,-0.34784 -1.54847,0.82872 -2.24936,4.0733 -1.29327,5.98677 0.61644,1.23368 2.61414,2.1933 4.10191,1.9704 0.66087,-0.099 1.63832,-0.59844 2.17209,-1.10982 z M 38.052862,238.50377 v -5.46806 h 0.881945 c 0.721931,0 0.881944,0.17199 0.881944,0.94795 v 0.94795 l 1.073129,-1.02813 c 1.562802,-1.49726 3.560516,-1.45055 4.960197,0.11596 1.012105,1.13274 1.02223,1.18769 1.02223,5.54823 0,4.16897 -0.03768,4.40416 -0.705556,4.40416 -0.661476,0 -0.70588,-0.23692 -0.710755,-3.79236 -0.0066,-4.83711 -0.31108,-5.51843 -2.530264,-5.66253 -1.324345,-0.086 -1.777185,0.0445 -2.37284,0.68388 -0.656381,0.70454 -0.736141,1.22252 -0.736141,4.78058 v 3.99043 h -0.881944 -0.881945 z m 12.223973,5.02708 c 0.149144,-0.24253 1.680467,-2.34597 3.402944,-4.6743 l 3.131778,-4.23334 -3.205735,-0.10143 c -2.915662,-0.0923 -3.205737,-0.16408 -3.205737,-0.79375 0,-0.65272 0.264682,-0.69232 4.627982,-0.69232 h 4.627983 l -0.866726,1.14653 c -2.912039,3.85213 -5.919795,8.00759 -5.919795,8.17869 0,0.10988 1.42875,0.19979 3.175,0.19979 2.939814,0 3.175001,0.0523 3.175001,0.70555 0,0.66954 -0.235187,0.70556 -4.606933,0.70556 -3.594982,0 -4.547365,-0.0969 -4.335762,-0.44098 z m 24.11214,-9.08402 v -9.52501 h 0.881944 0.881945 v 9.52501 9.525 h -0.881945 -0.881944 z m 17.162861,9.08402 c 0.149144,-0.24253 1.680468,-2.34597 3.402944,-4.6743 l 3.131778,-4.23334 -3.205734,-0.10143 c -2.915662,-0.0923 -3.205738,-0.16408 -3.205738,-0.79375 0,-0.65272 0.264683,-0.69232 4.627983,-0.69232 h 4.627981 l -0.86672,1.14653 c -2.912044,3.85213 -5.919799,8.00759 -5.919799,8.17869 0,0.10988 1.42875,0.19979 3.175,0.19979 2.939809,0 3.174999,0.0523 3.174999,0.70555 0,0.66954 -0.23519,0.70556 -4.606931,0.70556 -3.594982,0 -4.547366,-0.0969 -4.335763,-0.44098 z m 46.337144,-5.02708 v -5.46806 h 0.88194 c 0.65927,0 0.88195,0.18606 0.88195,0.73692 0,0.70502 0.0482,0.69634 1.11418,-0.20062 0.84084,-0.70751 1.33833,-0.88127 2.02775,-0.70824 1.14891,0.28836 1.22593,0.37086 0.96966,1.03867 -0.14598,0.38044 -0.69295,0.54439 -1.8162,0.54439 -1.40073,0 -1.65152,0.1163 -1.95135,0.90491 -0.18922,0.4977 -0.34404,2.64082 -0.34404,4.7625 v 3.85759 h -0.88195 -0.88194 z m 8.81944,0 v -5.46806 h 0.88195 0.88194 v 5.46806 5.46806 h -0.88194 -0.88195 z m 17.99167,0 v -5.46806 h 0.88194 c 0.72194,0 0.88195,0.17199 0.88195,0.94795 v 0.94795 l 1.07313,-1.02813 c 1.5628,-1.49726 3.56051,-1.45055 4.96019,0.11596 1.01211,1.13274 1.02223,1.18769 1.02223,5.54823 0,4.16897 -0.0377,4.40416 -0.70555,4.40416 -0.66148,0 -0.70588,-0.23692 -0.71076,-3.79236 -0.007,-4.84373 -0.30953,-5.51843 -2.54228,-5.66302 -1.28617,-0.0833 -1.80794,0.0525 -2.37284,0.61736 -0.64636,0.64636 -0.72412,1.15982 -0.72412,4.78107 v 4.05695 h -0.88195 -0.88194 z m -97.829713,-9.87333 c 1.852965,-2.11279 1.814844,-2.08936 2.579709,-1.58494 0.434227,0.28638 0.2127,0.63109 -1.234723,1.92132 -2.612044,2.32839 -3.489565,2.10892 -1.344986,-0.33638 z m 79.975113,0.0203 c -0.35125,-0.91534 0.14107,-1.67188 1.00788,-1.54879 0.58305,0.0828 0.79533,0.34833 0.79533,0.99488 0,0.64654 -0.21228,0.91209 -0.79533,0.99488 -0.47705,0.0677 -0.88039,-0.10873 -1.00788,-0.44097 z"
         id="path251" />
    </g>
  </g>
</svg>
