<?xml version="1.0" encoding="UTF-8" standalone="no"?>
<!-- Created with Inkscape (http://www.inkscape.org/) -->

<svg
   width="151.70854mm"
   height="184.85838mm"
   viewBox="0 0 151.70854 184.85838"
   version="1.1"
   id="svg5"
   inkscape:version="1.1.2 (0a00cf5339, 2022-02-04)"
   sodipodi:docname="logoS.svg"
   xmlns:inkscape="http://www.inkscape.org/namespaces/inkscape"
   xmlns:sodipodi="http://sodipodi.sourceforge.net/DTD/sodipodi-0.dtd"
   xmlns="http://www.w3.org/2000/svg"
   xmlns:svg="http://www.w3.org/2000/svg">
  <sodipodi:namedview
     id="namedview7"
     pagecolor="#ffffff"
     bordercolor="#666666"
     borderopacity="1.0"
     inkscape:pageshadow="2"
     inkscape:pageopacity="0.0"
     inkscape:pagecheckerboard="0"
     inkscape:document-units="mm"
     showgrid="false"
     inkscape:zoom="0.53165938"
     inkscape:cx="268.02875"
     inkscape:cy="570.85422"
     inkscape:window-width="1920"
     inkscape:window-height="1016"
     inkscape:window-x="0"
     inkscape:window-y="27"
     inkscape:window-maximized="1"
     inkscape:current-layer="layer1" />
  <defs
     id="defs2" />
  <g
     inkscape:label="Layer 1"
     inkscape:groupmode="layer"
     id="layer1"
     transform="translate(-29.966679,-23.118524)">
    <g
       id="g249"
       transform="translate(-0.32239425,0.69116235)">
      <path
         style="fill:#7f7f7f;stroke-width:0.352778"
         d="m 38.052862,189.118 v -18.16765 l 33.921525,-0.09 33.921533,-0.09 16.7026,-26.72329 16.7026,-26.7233 L 129.376,95.540189 C 123.91719,83.559177 119.07654,72.921868 118.61901,71.901719 l -0.83189,-1.854814 21.36972,0.09092 21.36972,0.09093 10.73553,22.673291 10.73553,22.673294 -27.64342,45.7656 -27.64342,45.76561 -44.328961,0.0896 -44.328957,0.0896 z"
         id="path269" />
      <path
         style="fill:#00009f;stroke-width:0.352778"
         d="M 41.796452,136.73461 30.289073,117.33906 59.996512,69.883213 89.703955,22.427362 h 45.259175 45.25918 v 17.286113 17.286112 h -29.75309 -29.7531 l -0.41112,0.902297 c -0.22611,0.496263 -8.90228,13.510642 -19.28038,28.920837 l -18.869274,28.018539 6.923546,14.20625 c 3.807954,7.81344 8.322572,17.10344 10.032489,20.64445 l 3.108939,6.43819 H 77.762074 53.303831 Z"
         id="path255" />
    </g>
  </g>
</svg>
